<svg width="109" height="109" viewBox="0 0 109 109" fill="none" xmlns="http://www.w3.org/2000/svg">
<g clip-path="url(#clip0)">
<path d="M79.1129 80.8358V107.242H54.5L59.7742 93.1774L56.2581 87.9032L61.5323 86.1452L65.0484 70.3226L65.2063 69.4607L70.5157 70.4634C75.4912 71.3948 79.1129 75.7547 79.1129 80.8358Z" fill="#656D78"/>
<path d="M21.0968 93.1774L26.371 107.242H1.75806V80.8358C1.75806 75.7547 5.37978 71.3948 10.3552 70.4634L15.6646 69.4607L15.8226 70.3226L19.3387 86.1452L24.6129 87.9032L21.0968 93.1774Z" fill="#656D78"/>
<path d="M54.4124 67.4572L52.2501 84.0352L51.5461 89.4682L49.2258 107.242H54.5L59.7742 93.1774L56.2581 87.9032L61.5323 86.1452L65.0484 70.3226L65.2063 69.4607L54.4124 67.4572Z" fill="#969FAA"/>
<path d="M28.6209 84.0352L26.4585 67.4572L15.6646 69.4607L15.8226 70.3226L19.3387 86.1452L24.6129 87.9032L21.0968 93.1774L26.371 107.242H31.6452L29.3248 89.4682L28.6209 84.0352Z" fill="#969FAA"/>
<path d="M51.5461 89.4681L49.2258 107.242H47.4677L43.9516 87.9032L47.4677 80.871L47.5905 80.713L52.2501 84.0351L51.5461 89.4681Z" fill="#E6E9ED"/>
<path d="M29.3248 89.4681L28.6209 84.0351L33.2805 80.713L33.4032 80.871L36.9194 87.9032L33.4032 107.242H31.6452L29.3248 89.4681Z" fill="#E6E9ED"/>
<path d="M43.9516 87.9032L47.4677 107.242H33.4032L36.9194 87.9032H43.9516Z" fill="#FF826E"/>
<path d="M66.8064 54.5L61.5323 56.2581C61.5323 58.3853 60.8816 60.4069 59.739 62.0945C58.6136 63.765 56.9791 65.1188 55.0099 65.9102L52.7419 66.8064L52.6896 67.1232L50.9839 66.8064V59.7742C54.8168 56.8907 57.4358 52.4956 57.9286 47.4677H58.0161C61.9014 47.4677 65.0484 44.3207 65.0484 40.4355V43.67C65.0484 47.345 65.6459 51.001 66.8064 54.5Z" fill="#B27946"/>
<path d="M58.0161 26.371H57.7346C54.658 28.6389 50.9135 29.8871 47.0454 29.8871H44.198V28.1642C41.8064 29.2896 39.1693 29.8871 36.497 29.8871H33.6496V28.1642C31.258 29.2896 28.6209 29.8871 25.9486 29.8871H22.8548V33.4032C18.9696 33.4032 15.8226 36.5502 15.8226 40.4355V24.1382C15.8226 11.7794 25.8439 1.75806 38.2027 1.75806C41.1737 1.75806 44.0744 2.35552 46.7647 3.46376C49.4542 4.57113 51.9333 6.22361 54.0253 8.3156L56.2581 10.5484C58.8248 11.0583 61.0052 12.4292 62.5692 14.328C64.1342 16.2449 65.0484 18.6708 65.0484 21.2727V40.4355C65.0484 36.5502 61.9014 33.4032 58.0161 33.4032V26.371Z" fill="#B27946"/>
<path d="M58.0161 33.4032C61.9014 33.4032 65.0484 36.5502 65.0484 40.4355C65.0484 44.3207 61.9014 47.4677 58.0161 47.4677H57.9286C57.9809 46.8874 58.0161 46.3071 58.0161 45.7097V33.4032Z" fill="#F0D0B4"/>
<path d="M58.0161 42.1936V45.7097C58.0161 46.3072 57.9809 46.8875 57.9286 47.4678C57.4358 52.4956 54.8168 56.8907 50.9839 59.7742C48.048 61.9718 44.3911 63.2903 40.4355 63.2903C36.4798 63.2903 32.8229 61.9718 29.8871 59.7742C29.2192 59.2643 28.5857 58.7192 28.0063 58.1389C25.2104 55.3439 23.3467 51.6165 22.9424 47.4678C22.89 46.8875 22.8548 46.3072 22.8548 45.7097V42.1936H33.4032C34.3698 42.1936 35.1613 41.4021 35.1613 40.4355V38.6774H45.7097V40.4355C45.7097 41.4021 46.5012 42.1936 47.4677 42.1936H58.0161Z" fill="#F0D0B4"/>
<path d="M58.0161 35.1613V42.1936H47.4677C46.5011 42.1936 45.7097 41.4021 45.7097 40.4355V36.9194C45.7097 35.9528 46.5011 35.1613 47.4677 35.1613H58.0161Z" fill="#69D6F4"/>
<path d="M44.198 29.8871H47.0454C50.9135 29.8871 54.658 28.6389 57.7346 26.371H58.0161V35.1613H47.4677C46.5012 35.1613 45.7097 35.9528 45.7097 36.9194V38.6774H35.1613V36.9194C35.1613 35.9528 34.3698 35.1613 33.4032 35.1613H22.8548V29.8871H25.9486C28.6209 29.8871 31.258 29.2896 33.6496 28.1642V29.8871H36.497C39.1693 29.8871 41.8064 29.2896 44.198 28.1642V29.8871Z" fill="#F0D0B4"/>
<path d="M54.4124 67.4571L52.2501 84.0351L47.5905 80.713L40.4355 75.5968L50.9839 66.8065L52.6896 67.1232L54.4124 67.4571Z" fill="#E6E9ED"/>
<path d="M50.9839 59.7742V66.8065L40.4355 75.5968L29.8871 66.8065V59.7742C32.8229 61.9718 36.4798 63.2903 40.4355 63.2903C44.3911 63.2903 48.048 61.9718 50.9839 59.7742Z" fill="#F0D0B4"/>
<path d="M40.4355 75.5968L47.5905 80.713L47.4677 80.871L43.9516 87.9032H36.9194L33.4032 80.871L33.2805 80.713L40.4355 75.5968Z" fill="#FF826E"/>
<path d="M40.4355 75.5968L33.2805 80.713L28.6209 84.0351L26.4585 67.4571L28.1814 67.1232L29.8871 66.8065L40.4355 75.5968Z" fill="#E6E9ED"/>
<path d="M35.1613 38.6774V40.4355C35.1613 41.4021 34.3698 42.1936 33.4032 42.1936H22.8548V35.1613H33.4032C34.3698 35.1613 35.1613 35.9528 35.1613 36.9194V38.6774Z" fill="#69D6F4"/>
<path d="M29.8871 59.7742V66.8064L28.1814 67.1232L28.129 66.8064L25.8611 65.9102C23.8918 65.1188 22.2574 63.765 21.132 62.0945C19.9894 60.4069 19.3387 58.3853 19.3387 56.2581L14.0645 54.5C15.2251 51.001 15.8226 47.345 15.8226 43.67V40.4355C15.8226 44.3207 18.9696 47.4677 22.8548 47.4677H22.9424C23.3467 51.6165 25.2104 55.3438 28.0063 58.1389C28.5857 58.7192 29.2192 59.2643 29.8871 59.7742Z" fill="#B27946"/>
<path d="M22.9424 47.4677H22.8548C18.9696 47.4677 15.8226 44.3207 15.8226 40.4355C15.8226 36.5502 18.9696 33.4032 22.8548 33.4032V45.7097C22.8548 46.3071 22.89 46.8874 22.9424 47.4677Z" fill="#F0D0B4"/>
<path d="M70.8325 68.7405L57.9088 66.3163C60.8799 64.3273 62.8457 61.1511 63.2234 57.5466L69.0306 55.6108L68.4752 53.9429C67.367 50.6216 66.8065 47.1639 66.8065 43.6666V21.271C66.8065 15.4251 62.7736 10.3269 57.1405 8.94484L55.2649 7.06917C50.7057 2.51091 44.6461 0 38.1993 0C24.891 0 14.0645 10.8265 14.0645 24.1348V43.6666C14.0645 47.1639 13.504 50.6216 12.3974 53.9446L11.842 55.6125L17.6493 57.5483C18.027 61.1528 19.9928 64.329 22.9639 66.318L10.0385 68.7405C4.2209 69.8307 0 74.916 0 80.8341V109H80.871V80.8341C80.871 74.916 76.6501 69.8307 70.8325 68.7405ZM57.8118 93.404L53.2819 105.484H51.2285L53.1445 90.7936L55.5404 89.9952L57.8118 93.404ZM36.4936 31.6452C39.0938 31.6452 41.615 31.1421 43.9516 30.1893V31.6452H47.042C50.2946 31.6452 53.4295 30.8571 56.2581 29.3617V33.4032H47.4677C45.5286 33.4032 43.9516 34.9802 43.9516 36.9194H36.9194C36.9194 34.9802 35.3424 33.4032 33.4032 33.4032H24.6129V31.6452H25.9452C28.5454 31.6452 31.0666 31.1421 33.4032 30.1893V31.6452H36.4936ZM56.2581 40.4355H47.4677V36.9194H56.2581V40.4355ZM24.6129 36.9194H33.4032V40.4355H24.6129V36.9194ZM24.6129 43.9516H33.4032C35.3424 43.9516 36.9194 42.3747 36.9194 40.4355H43.9516C43.9516 42.3747 45.5286 43.9516 47.4677 43.9516H56.2581V45.7097C56.2581 54.4348 49.1606 61.5323 40.4355 61.5323C31.7104 61.5323 24.6129 54.4348 24.6129 45.7097V43.9516ZM32.6581 83.3115L35.0858 88.1668L32.665 101.478L30.4974 84.8549L32.6581 83.3115ZM38.0061 86.1452L35.5553 81.2418L40.4355 77.7574L45.3157 81.2435L42.8648 86.1452H38.0061ZM48.2129 83.3115L50.3735 84.8549L48.206 101.478L45.7852 88.1668L48.2129 83.3115ZM50.8886 80.9044L43.3095 75.4912L51.474 68.6873L52.4587 68.8718L50.8886 80.9044ZM40.4355 65.0484C43.6014 65.0484 46.5853 64.2681 49.2258 62.9143V65.9815L40.4355 73.3082L31.6452 65.9815V62.9143C34.2857 64.2681 37.2696 65.0484 40.4355 65.0484ZM29.3969 68.6873L37.5615 75.4912L29.9824 80.9044L28.4123 68.8718L29.3969 68.6873ZM27.2217 86.9203L20.8384 84.7931L17.7463 70.8711L24.952 69.5208L27.2217 86.9203ZM25.3323 89.9952L27.7281 90.7936L29.6442 105.484H27.5908L23.0609 93.404L25.3323 89.9952ZM38.3856 89.6613H42.4854L45.3612 105.484H35.5072L38.3856 89.6613ZM53.6493 86.9203L55.919 69.5208L63.1246 70.8711L60.0326 84.7931L53.6493 86.9203ZM59.7742 54.9902V56.2581C59.7742 59.8077 57.6453 62.9512 54.3506 64.2698L52.7419 64.9128V60.6163C56.2091 57.7492 58.6454 53.6914 59.4609 49.0799C60.9751 48.8266 62.3426 48.1811 63.4903 47.2583C63.6981 49.3245 64.0621 51.371 64.6226 53.3746L59.7742 54.9902ZM59.7742 45.386V35.4866C61.8155 36.2146 63.2903 38.1486 63.2903 40.4372C63.2903 42.7266 61.8155 44.6581 59.7742 45.386ZM38.1993 3.51613C43.707 3.51613 48.885 5.66135 52.7789 9.55518L55.3911 12.1674L55.9138 12.273C60.1871 13.1271 63.2903 16.9111 63.2903 21.271V33.4487C62.2636 32.6718 61.0807 32.0898 59.7742 31.8246V22.8548H56.2581V25.2473C53.7334 26.9899 50.8259 27.9676 47.7682 28.1007C48.7211 27.4363 49.6301 26.6946 50.4688 25.8559L47.9828 23.3699C45.089 26.2637 41.2913 27.9127 37.2301 28.0938C38.1795 27.4311 39.0852 26.6929 39.9204 25.8559L37.4344 23.3699C34.3647 26.4396 30.2863 28.129 25.9452 28.129H24.6129V22.8548H21.0968V31.8229C19.7902 32.0898 18.6073 32.6701 17.5806 33.447V24.133C17.5806 12.7657 26.8302 3.51613 38.1993 3.51613ZM21.0968 35.4849V45.3843C19.0554 44.6564 17.5806 42.7223 17.5806 40.4338C17.5806 38.1443 19.0554 36.2129 21.0968 35.4849ZM16.2484 53.3729C16.8089 51.3693 17.1729 49.3228 17.3806 47.2566C18.5284 48.1794 19.8958 48.8266 21.4101 49.0782C22.2256 53.6879 24.6601 57.7457 28.129 60.6146V64.911L26.5203 64.2681C23.2257 62.9512 21.0968 59.8077 21.0968 56.2581V54.9902L16.2484 53.3729ZM3.51613 80.8341C3.51613 76.608 6.53265 72.9717 10.6875 72.1931L14.286 71.5184L17.8373 87.4972L21.8719 88.8423L19.1327 92.9508L23.8343 105.484H3.51613V80.8341ZM77.3548 105.484H57.0367L61.7366 92.9508L58.9973 88.8423L63.0319 87.4972L66.5833 71.5184L70.1818 72.1931C74.3383 72.9734 77.3548 76.608 77.3548 80.8341V105.484Z" fill="black"/>
<path d="M40.4355 56.2581C44.3139 56.2581 47.4677 53.1042 47.4677 49.2258H43.9516C43.9516 51.165 42.3747 52.7419 40.4355 52.7419C38.4963 52.7419 36.9194 51.165 36.9194 49.2258H33.4032C33.4032 53.1042 36.5571 56.2581 40.4355 56.2581Z" fill="black"/>
<path d="M98.4516 19.3387V22.8548H103.241C94.1938 32.5997 83.4849 40.3531 71.3527 45.8676L72.8086 49.0679C85.2206 43.4263 96.1888 35.5201 105.484 25.5975V29.8871H109V19.3387H98.4516Z" fill="#F2CA37"/>
<path d="M105.484 35.1613H101.968V61.5323H98.4516V40.4355H94.9355V61.5323H91.4194V45.7097H87.9032V61.5323H84.3871V49.2258H80.871V61.5323H77.3548V54.5H73.8387V61.5323H70.3226V65.0484H109V61.5323H105.484V35.1613Z" fill="#F2CA37"/>
<path d="M3.51613 0H7.03226V3.51613H3.51613V0Z" fill="white"/>
<path d="M0 3.51614H3.51613V7.03227H0V3.51614Z" fill="white"/>
<path d="M3.51613 7.03226H7.03226V10.5484H3.51613V7.03226Z" fill="white"/>
<path d="M7.03226 3.51614H10.5484V7.03227H7.03226V3.51614Z" fill="white"/>
<path d="M73.8387 24.6129H77.3548V28.129H73.8387V24.6129Z" fill="white"/>
<path d="M70.3226 28.129H73.8387V31.6452H70.3226V28.129Z" fill="white"/>
<path d="M73.8387 31.6452H77.3548V35.1613H73.8387V31.6452Z" fill="white"/>
<path d="M77.3548 28.129H80.871V31.6452H77.3548V28.129Z" fill="white"/>
<path d="M101.968 72.0807H105.484V75.5968H101.968V72.0807Z" fill="white"/>
<path d="M98.4516 75.5968H101.968V79.1129H98.4516V75.5968Z" fill="white"/>
<path d="M101.968 79.1129H105.484V82.629H101.968V79.1129Z" fill="white"/>
<path d="M105.484 75.5968H109V79.1129H105.484V75.5968Z" fill="white"/>
</g>
<defs>
<clipPath id="clip0">
<rect width="109" height="109" fill="white"/>
</clipPath>
</defs>
</svg>
