<svg width="110" height="110" viewBox="0 0 110 110" fill="none" xmlns="http://www.w3.org/2000/svg">
<path d="M14.1847 77L19.3914 69.6667L12.3514 62.3333L19.6847 55V108.167H30.6847V77H47.1847V89.8333H58.1847V73.3333C58.1847 69.2833 54.9015 66 50.8514 66H38.0181V53.1667L63.6847 34.8333L58.1847 27.5L34.3514 44L28.8514 55L23.3514 44H16.0181L4.17472 57.1633C1.56818 60.0591 1.68093 64.4873 4.43139 67.2467L14.1847 77Z" fill="#63C8CD"/>
<path d="M34.3514 44H27.0181H23.3514L28.8514 55L34.3514 44Z" fill="#EF9F35"/>
<path d="M27.0181 44C33.0932 44 38.0181 39.0751 38.0181 33C38.0181 26.9249 33.0932 22 27.0181 22C20.9429 22 16.0181 26.9249 16.0181 33C16.0181 39.0751 20.9429 44 27.0181 44Z" fill="#63C8CD"/>
<path d="M39.8514 89.8334V108.167H76.5181V89.8334H58.1847H47.1847H39.8514Z" fill="#EF9F35"/>
<path d="M92.5047 5.70164C91.1375 10.7082 87.2263 14.6194 82.2197 15.9866C81.9362 16.0632 81.7683 16.3549 81.8448 16.6384C81.8941 16.8213 82.0369 16.964 82.2197 17.0133C87.2263 18.3805 91.1375 22.2917 92.5047 27.2983C92.5813 27.5818 92.873 27.7498 93.1565 27.6732C93.3394 27.624 93.4821 27.4812 93.5314 27.2983C94.8986 22.2917 98.8098 18.3805 103.816 17.0133C104.1 16.9368 104.268 16.645 104.191 16.3616C104.142 16.1787 103.999 16.0359 103.816 15.9866C98.8098 14.6194 94.8986 10.7082 93.5314 5.70164C93.4548 5.41816 93.1631 5.25018 92.8796 5.32673C92.697 5.376 92.5542 5.51877 92.5047 5.70164Z" fill="#F7D04F"/>
<path d="M12.8831 78.3018C13.2642 78.6833 13.794 78.8779 14.3314 78.8334C14.8757 78.7915 15.373 78.5094 15.6881 78.0634L17.8514 75.0018V108.167C17.8514 109.179 18.6723 110 19.6847 110H30.6847C31.6972 110 32.5181 109.179 32.5181 108.167V78.8334H45.3514V88.0001H39.8514C38.8389 88.0001 38.0181 88.821 38.0181 89.8334V108.167C38.0181 109.179 38.8389 110 39.8514 110H76.5181C77.5305 110 78.3514 109.179 78.3514 108.167V89.8334C78.3514 88.821 77.5305 88.0001 76.5181 88.0001H60.0181V73.3334C60.0181 68.2709 55.9139 64.1668 50.8514 64.1668H39.8514V54.1018L64.748 36.3184C65.1514 36.0329 65.4225 35.5965 65.4997 35.1084C65.5728 34.6219 65.4472 34.1264 65.1514 33.7334L59.6514 26.4001C59.0588 25.6122 57.9491 25.4339 57.1397 25.9968L38.3481 38.9951C41.671 32.7347 39.2895 24.9657 33.0291 21.643C26.7687 18.3204 18.9997 20.7016 15.6771 26.962C13.0052 31.9957 13.973 38.1882 18.0533 42.1668H16.0183C15.5011 42.1679 15.0081 42.3877 14.6616 42.7718L2.8183 55.9351C-0.433349 59.5681 -0.272245 65.1105 3.18496 68.5484L12.8831 78.3018ZM17.8514 65.4684L14.9181 62.3334L17.8514 59.4001V65.4684ZM74.6847 106.333H41.6847V91.6667H74.6847V106.333ZM31.3814 45.8334L28.8514 50.8934L26.3214 45.8334H31.3814ZM17.8514 33.0001C17.8514 27.9376 21.9555 23.8334 27.0181 23.8334C32.0806 23.8334 36.1847 27.9376 36.1847 33.0001C36.1847 38.0626 32.0806 42.1668 27.0181 42.1668C21.9555 42.1668 17.8514 38.0626 17.8514 33.0001ZM5.5314 58.3918L16.8431 45.8334H22.2147L27.2197 55.8251C27.6815 56.7262 28.7861 57.0825 29.6874 56.6208C30.0295 56.4454 30.308 56.1672 30.4831 55.8251L35.7814 45.2468L57.7814 30.0118L61.0997 34.4301L36.9547 51.6818C36.4739 52.0239 36.1875 52.5767 36.1847 53.1668V66.0001C36.1847 67.0125 37.0056 67.8334 38.0181 67.8334H50.8514C53.889 67.8334 56.3514 70.2958 56.3514 73.3334V88.0001H49.0181V77.0001C49.0181 75.9876 48.1972 75.1668 47.1847 75.1668H30.6847C29.6723 75.1668 28.8514 75.9876 28.8514 77.0001V106.333H21.5181V55.0001C21.5144 54.2599 21.0659 53.5946 20.3814 53.3134C19.6987 53.0263 18.9101 53.1782 18.3831 53.6984L11.0497 61.0318C10.351 61.7447 10.351 62.8855 11.0497 63.5984L17.0447 69.8501L13.9464 74.1768L5.73307 66.0001C3.63871 63.9275 3.5498 60.5725 5.5314 58.3918Z" fill="#3C3C48"/>
<path d="M107.685 14.6667C100.597 14.6667 94.8514 8.921 94.8514 1.83333C94.8514 0.820875 94.0305 0 93.0181 0C92.0056 0 91.1847 0.820875 91.1847 1.83333C91.1847 8.921 85.4391 14.6667 78.3514 14.6667C77.339 14.6667 76.5181 15.4875 76.5181 16.5C76.5181 17.5125 77.339 18.3333 78.3514 18.3333C85.4391 18.3333 91.1847 24.079 91.1847 31.1667C91.1847 32.1791 92.0056 33 93.0181 33C94.0305 33 94.8514 32.1791 94.8514 31.1667C94.8514 24.079 100.597 18.3333 107.685 18.3333C108.697 18.3333 109.518 17.5125 109.518 16.5C109.518 15.4875 108.697 14.6667 107.685 14.6667ZM93.0181 23.6133C91.4375 20.5654 88.9529 18.0808 85.9047 16.5C88.9527 14.9192 91.4373 12.4346 93.0181 9.38667C94.5989 12.4346 97.0835 14.9192 100.131 16.5C97.0835 18.0808 94.5989 20.5654 93.0181 23.6133Z" fill="#3C3C48"/>
<path d="M57.1024 49.8499L62.0996 46.1858L64.2677 49.1427L59.2705 52.8069L57.1024 49.8499Z" fill="#3C3C48"/>
<path d="M66.28 43.1367L84.6085 29.6879L86.7776 32.6441L68.4491 46.093L66.28 43.1367Z" fill="#3C3C48"/>
<path d="M66.3302 27.8041L77.3286 20.4719L79.3625 23.5228L68.3641 30.855L66.3302 27.8041Z" fill="#3C3C48"/>
</svg>
