<svg width="110" height="110" viewBox="0 0 110 110" fill="none" xmlns="http://www.w3.org/2000/svg">
<path d="M62.8031 45.6156C64.4531 41.8344 65.3125 37.7266 65.3125 33.5672C65.3125 25.9875 62.5109 19.0609 57.8531 13.7672L57.8703 13.75H106.562V106.562H34.375V85.9375H36.0938C43.6906 85.9375 49.8438 79.7844 49.8438 72.1875H53.2812C54.2266 72.1875 55.0859 71.8094 55.7047 71.1734C56.3406 70.5547 56.7188 69.6953 56.7188 68.75C56.7188 66.8594 55.1719 65.3125 53.2812 65.3125H49.8438L59.95 50.7031C61.0672 49.1047 62.0297 47.3859 62.8031 45.6156Z" fill="#E6E9ED"/>
<path d="M92.8125 48.125H99.6875V85.9375H92.8125V48.125Z" fill="#FF826E"/>
<path d="M79.0625 55H85.9375V85.9375H79.0625V55Z" fill="#FF826E"/>
<path d="M65.3125 65.3125H72.1875V85.9375H65.3125V65.3125Z" fill="#FF826E"/>
<path d="M65.3125 92.8125H99.6875V99.6875H65.3125V92.8125Z" fill="#FCD770"/>
<path d="M18.9062 72.1875H49.8438C49.8438 79.7844 43.6906 85.9375 36.0938 85.9375H34.375H32.6562C25.0594 85.9375 18.9062 79.7844 18.9062 72.1875Z" fill="#CF9E76"/>
<path d="M53.2812 65.3125C55.1719 65.3125 56.7188 66.8594 56.7188 68.75C56.7188 69.6953 56.3406 70.5547 55.7047 71.1734C55.0859 71.8094 54.2266 72.1875 53.2812 72.1875H49.8438H18.9062H15.4688C13.5781 72.1875 12.0312 70.6406 12.0312 68.75C12.0312 67.8047 12.4094 66.9453 13.0453 66.3266C13.6641 65.6906 14.5234 65.3125 15.4688 65.3125H18.9062H49.8438H53.2812Z" fill="#CF9E76"/>
<path d="M65.3125 33.5672C65.3125 37.7266 64.4531 41.8344 62.8031 45.6156C62.0297 47.3859 61.0672 49.1047 59.95 50.7031L49.8438 65.3125H18.9062L8.8 50.7031C7.04687 48.1937 5.70625 45.4266 4.8125 42.5391C3.90156 39.6516 3.4375 36.6266 3.4375 33.5672C3.4375 16.9297 16.9297 3.4375 33.5672 3.4375H35.1828C43.5016 3.4375 51.0297 6.80625 56.4781 12.2719C56.9594 12.7531 57.4234 13.2516 57.8531 13.7672C62.5109 19.0609 65.3125 25.9875 65.3125 33.5672Z" fill="#FFEAA7"/>
<path d="M34.375 49.8437L37.8125 46.4062L36.6781 31.1094C40.0297 31.6078 43.0375 33.1891 45.3063 35.475C48.1078 38.2594 49.8438 42.1437 49.8438 46.4062V55H18.9062V46.4062C18.9062 38.6547 24.6297 32.2266 32.0719 31.1094L30.9375 46.4062L34.375 49.8437Z" fill="#B4DD7F"/>
<path d="M36.6781 31.1094L37.8125 46.4062L34.375 49.8438L30.9375 46.4062L32.0719 31.1094C32.8281 30.9891 33.6016 30.9375 34.375 30.9375C35.1484 30.9375 35.9219 30.9891 36.6781 31.1094Z" fill="#E6E9ED"/>
<path d="M34.375 30.9375C39.1212 30.9375 42.9688 27.0899 42.9688 22.3438C42.9688 17.5976 39.1212 13.75 34.375 13.75C29.6288 13.75 25.7812 17.5976 25.7812 22.3438C25.7812 27.0899 29.6288 30.9375 34.375 30.9375Z" fill="#F0D0B4"/>
<path d="M10.7267 43.6666C11.1787 44.6824 11.703 45.6793 12.2856 46.6263L15.2127 44.8233C14.7091 44.0069 14.257 43.1476 13.8686 42.271L10.7267 43.6666Z" fill="black"/>
<path d="M12.0313 33.5586C12.0313 27.7888 14.2914 22.3661 18.3992 18.2892L15.9758 15.8521C11.2148 20.5786 8.59375 26.8675 8.59375 33.5586C8.59375 35.7311 8.87391 37.8881 9.42563 39.9713L12.7497 39.0895C12.2736 37.2952 12.0313 35.4338 12.0313 33.5586Z" fill="black"/>
<path d="M56.7187 33.5586C56.7187 33.8112 56.7136 34.0639 56.705 34.3148L60.1408 34.4317C60.1511 34.1429 60.1562 33.8507 60.1562 33.5586C60.1562 32.6218 60.103 31.6765 59.9998 30.7501L56.5847 31.1351C56.6741 31.9343 56.7187 32.749 56.7187 33.5586Z" fill="black"/>
<path d="M55.9934 28.0104L59.3158 27.1236C58.9995 25.9393 58.5905 24.7654 58.1006 23.6396L54.9484 25.0095C55.3695 25.9806 55.7219 26.9895 55.9934 28.0104Z" fill="black"/>
<path d="M56.3836 20.3741C55.7339 19.3325 55 18.3322 54.2059 17.3989L51.59 19.6281C52.2741 20.4325 52.9083 21.297 53.4686 22.196L56.3836 20.3741Z" fill="black"/>
<path d="M17.1875 46.4062V56.7188H51.5625V46.4062C51.5625 39.1737 47.0662 32.9828 40.7275 30.4511C43.1337 28.5605 44.6875 25.6334 44.6875 22.3438C44.6875 16.6564 40.0623 12.0312 34.375 12.0312C28.6877 12.0312 24.0625 16.6564 24.0625 22.3438C24.0625 25.6334 25.6163 28.5605 28.0225 30.4511C21.6838 32.9828 17.1875 39.1737 17.1875 46.4062ZM36.0405 45.748L34.375 47.4134L32.7095 45.748L33.672 32.6923C33.9058 32.6803 34.1378 32.6562 34.375 32.6562C34.6122 32.6562 34.8442 32.6803 35.078 32.6923L36.0405 45.748ZM27.5 22.3438C27.5 18.5522 30.5834 15.4688 34.375 15.4688C38.1666 15.4688 41.25 18.5522 41.25 22.3438C41.25 26.1353 38.1666 29.2188 34.375 29.2188C30.5834 29.2188 27.5 26.1353 27.5 22.3438ZM30.1795 33.3163L29.1655 47.0645L34.375 52.2741L39.5845 47.0645L38.5705 33.3163C44.1048 35.0952 48.125 40.2875 48.125 46.4062V53.2812H20.625V46.4062C20.625 40.2875 24.6452 35.0952 30.1795 33.3163Z" fill="black"/>
<path d="M58.5819 12.0312C52.7588 5.70969 44.4417 1.71875 35.1914 1.71875H33.5603C16.0033 1.71875 1.71875 16.0033 1.71875 33.5586C1.71875 40.0658 3.67641 46.3341 7.38031 51.6828L15.6252 63.5938H15.4688C12.6259 63.5938 10.3125 65.9072 10.3125 68.75C10.3125 71.5928 12.6259 73.9062 15.4688 73.9062H17.2889C18.1483 81.6286 24.7087 87.6562 32.6562 87.6562V108.281H108.281V12.0312H58.5819ZM10.2059 49.7269C6.9025 44.9556 5.15625 39.3645 5.15625 33.5586C5.15625 17.8973 17.8973 5.15625 33.5586 5.15625H35.1897C50.8527 5.15625 63.5938 17.8973 63.5938 33.5586C63.5938 39.3628 61.8475 44.9539 58.5441 49.7252L48.9431 63.5938H19.8069L10.2059 49.7269ZM13.75 68.75C13.75 67.803 14.5217 67.0312 15.4688 67.0312H53.2812C54.2283 67.0312 55 67.803 55 68.75C55 69.697 54.2283 70.4688 53.2812 70.4688H15.4688C14.5217 70.4688 13.75 69.697 13.75 68.75ZM20.7625 73.9062H47.9875C47.1488 79.7277 42.142 84.2188 36.0938 84.2188H32.6562C26.608 84.2188 21.6012 79.7277 20.7625 73.9062ZM104.844 104.844H36.0938V87.6562C44.0412 87.6562 50.6017 81.6286 51.4611 73.9062H53.2812C56.1241 73.9062 58.4375 71.5928 58.4375 68.75C58.4375 65.9072 56.1241 63.5938 53.2812 63.5938H53.1248L61.3697 51.6828C62.0761 50.6636 62.6983 49.5997 63.2758 48.5186L68.75 53.9928L96.8894 25.8534L94.5656 37.4739L97.9361 38.1494L101.879 18.4336L82.1631 22.3781L82.8386 25.7486L94.4591 23.4248L68.75 49.1322L64.8261 45.2083C66.2767 41.5233 67.0312 37.5891 67.0312 33.5586C67.0312 26.84 64.9275 20.6112 61.3611 15.4688H104.844V104.844Z" fill="black"/>
<path d="M91.0938 87.6562H101.406V46.4062H91.0938V87.6562ZM94.5312 49.8438H97.9688V84.2188H94.5312V49.8438Z" fill="black"/>
<path d="M87.6562 53.2812H77.3438V87.6562H87.6562V53.2812ZM84.2188 84.2188H80.7812V56.7188H84.2188V84.2188Z" fill="black"/>
<path d="M73.9062 63.5938H63.5938V87.6562H73.9062V63.5938ZM70.4688 84.2188H67.0312V67.0312H70.4688V84.2188Z" fill="black"/>
<path d="M63.5938 101.406H101.406V91.0938H63.5938V101.406ZM67.0312 94.5312H97.9688V97.9688H67.0312V94.5312Z" fill="black"/>
<path d="M39.5312 91.0938H60.1562V94.5312H39.5312V91.0938Z" fill="black"/>
<path d="M39.5312 97.9688H53.2812V101.406H39.5312V97.9688Z" fill="black"/>
<path d="M56.7188 97.9688H60.1562V101.406H56.7188V97.9688Z" fill="black"/>
</svg>
