<svg width="100" height="100" viewBox="0 0 100 100" fill="none" xmlns="http://www.w3.org/2000/svg">
<g clip-path="url(#clip0)">
<path
        d="M16.6667 28.125C16.6667 17.2125 25.5458 8.33333 36.4583 8.33333H74.5125C73.1417 3.5375 68.7709 0 63.5417 0H15.625C9.30418 0 4.16668 5.1375 4.16668 11.4583V76.0417C4.16668 82.3625 9.30418 87.5 15.625 87.5H16.6667V28.125Z" fill="#000"/>
<path
        d="M84.375 16.6667H36.4583C30.1375 16.6667 25 21.8042 25 28.125V88.5417C25 94.8625 30.1375 100 36.4583 100H84.375C90.6958 100 95.8333 94.8625 95.8333 88.5417V28.125C95.8333 21.8042 90.6958 16.6667 84.375 16.6667ZM76.0417 87.5H44.7917C43.0667 87.5 41.6667 86.1 41.6667 84.375C41.6667 82.65 43.0667 81.25 44.7917 81.25H76.0417C77.7667 81.25 79.1667 82.65 79.1667 84.375C79.1667 86.1 77.7667 87.5 76.0417 87.5ZM76.0417 70.8334H44.7917C43.0667 70.8334 41.6667 69.4334 41.6667 67.7084C41.6667 65.9834 43.0667 64.5834 44.7917 64.5834H76.0417C77.7667 64.5834 79.1667 65.9834 79.1667 67.7084C79.1667 69.4334 77.7667 70.8334 76.0417 70.8334ZM76.0417 56.25H44.7917C43.0667 56.25 41.6667 54.85 41.6667 53.125C41.6667 51.4 43.0667 50 44.7917 50H76.0417C77.7667 50 79.1667 51.4 79.1667 53.125C79.1667 54.85 77.7667 56.25 76.0417 56.25ZM76.0417 39.5834H44.7917C43.0667 39.5834 41.6667 38.1834 41.6667 36.4584C41.6667 34.7334 43.0667 33.3334 44.7917 33.3334H76.0417C77.7667 33.3334 79.1667 34.7334 79.1667 36.4584C79.1667 38.1834 77.7667 39.5834 76.0417 39.5834Z" fill="#000"/>
</g>
<defs>
<clipPath id="clip0">
<rect width="100" height="100" fill="white"/>
</clipPath>
</defs>
</svg>
