<svg width="110" height="110" viewBox="0 0 110 110" fill="none" xmlns="http://www.w3.org/2000/svg">
<path d="M34.375 56.7188L41.25 63.5938L48.125 56.7188L70.4447 60.4381C75.4187 61.2683 79.0625 65.5703 79.0625 70.6114V106.562H3.4375V70.6114C3.4375 65.5703 7.08125 61.2683 12.0553 60.4398L34.375 56.7188Z" fill="#E39854"/>
<path d="M104.844 106.562H56.7188C55.77 106.562 55 105.792 55 104.844V70.4688C55 69.52 55.77 68.75 56.7188 68.75H104.844C105.792 68.75 106.562 69.52 106.562 70.4688V104.844C106.562 105.792 105.792 106.562 104.844 106.562Z" fill="#606060"/>
<path d="M55 99.043C55.1134 99.0447 55.2234 99.0601 55.3386 99.0601C72.753 99.0601 87.0478 85.7502 88.6359 68.75H56.7188C55.77 68.75 55 69.52 55 70.4687V99.043Z" fill="#8C8787"/>
<path d="M106.562 75.625C106.562 81.3209 101.946 85.9375 96.25 85.9375H65.3125C59.6166 85.9375 55 81.3209 55 75.625V70.4688C55 69.52 55.77 68.75 56.7188 68.75H104.844C105.792 68.75 106.562 69.52 106.562 70.4688V75.625Z" fill="#D5CEC2"/>
<path d="M88.6359 68.75H56.7188C55.77 68.75 55 69.52 55 70.4688V75.625C55 81.3209 59.6166 85.9375 65.3125 85.9375H81.8624C85.592 81.0803 88.0344 75.1902 88.6359 68.75Z" fill="#E7E4DD"/>
<path d="M106.562 99.6875V104.844C106.562 105.793 105.792 106.562 104.844 106.562H56.7188C55.77 106.562 55 105.793 55 104.844V99.6875H106.562Z" fill="#D5CEC2"/>
<path d="M37.8125 60.1562L36.0938 65.3125L39.5312 70.4688H42.9688L46.4062 65.3125L44.6875 60.1562" fill="#D5CEC2"/>
<path d="M53.2812 18.9062L50.5312 20.9687C47.8534 22.9762 44.5964 24.0625 41.25 24.0625C37.9036 24.0625 34.6466 22.9762 31.9688 20.9687L29.2188 18.9062L25.7812 25.7812V36.0938C25.7812 42.1644 29.2858 47.4031 34.375 49.9348V56.7188L41.25 63.5938L48.125 56.7188V49.9348C53.2142 47.4014 56.7188 42.1627 56.7188 36.0938V25.7812L53.2812 18.9062Z" fill="#FADFB2"/>
<path d="M56.7188 27.5L58.697 22.9161C60.2474 19.3205 59.9741 15.1972 57.958 11.8387C56.6895 9.72641 54.8109 8.04719 52.568 7.02625L47.7727 4.84172C45.7394 3.91703 43.5325 3.4375 41.2998 3.4375C37.9208 3.4375 34.6328 4.53406 31.9292 6.56047L28.9678 8.79656C26.5684 9.31563 24.4544 10.8041 23.1636 12.9559C21.5823 15.5908 21.4569 18.8513 22.8319 21.5995L25.7812 27.5V25.7812L29.2187 18.9062L31.9687 20.9688C34.6466 22.9762 37.9036 24.0625 41.25 24.0625C44.5964 24.0625 47.8534 22.9762 50.5313 20.9688L53.2813 18.9062L56.7188 25.7812V27.5Z" fill="#C18E59"/>
<path d="M25.7812 27.5H22.3438C20.4445 27.5 18.9062 29.0383 18.9062 30.9375C18.9062 32.8367 20.4445 34.375 22.3438 34.375H25.7812" fill="#EFBE9A"/>
<path d="M56.7188 27.5H60.1562C62.0555 27.5 63.5938 29.0383 63.5938 30.9375C63.5938 32.8367 62.0555 34.375 60.1562 34.375H56.7188" fill="#EFBE9A"/>
<path d="M18.9062 75.6232H22.3438V106.559H18.9062V75.6232Z" fill="#C16B3F"/>
<path d="M42.9688 70.4688L46.4062 79.0625L41.25 101.406L36.0938 79.0625L39.5312 70.4688" fill="#E7E4DD"/>
<path d="M80.7812 92.8125C78.882 92.8125 77.3438 91.2742 77.3438 89.375V79.0625H84.2188V89.375C84.2188 91.2742 82.6805 92.8125 80.7812 92.8125Z" fill="#F2C351"/>
<path d="M91.0938 68.7482L91.092 61.8732C91.092 60.9244 90.322 60.1544 89.3733 60.1544H72.1875C71.2387 60.1544 70.4688 60.9244 70.4688 61.8732V68.7464L67.0312 68.7482V61.8732C67.0312 59.0304 69.3447 56.7169 72.1875 56.7169H89.3733C92.2161 56.7169 94.5295 59.0304 94.5295 61.8732L94.5312 68.7464L91.0938 68.7482Z" fill="#8C8787"/>
<path d="M84.2188 82.4347V79.0625H77.3438V89.375C77.3438 89.7927 77.4297 90.188 77.5655 90.5592C80.1883 88.2217 82.4364 85.4855 84.2188 82.4347Z" fill="#F7D881"/>
<path d="M104.844 67.0312H94.5312V61.8749C94.5312 59.0321 92.2178 56.7187 89.375 56.7187H72.1875C70.7059 56.7187 69.3773 57.3563 68.4372 58.3601L49.8438 55.2612V50.954C54.9725 47.9771 58.4375 42.4376 58.4375 36.0937H60.1562C62.9991 36.0919 65.3108 33.7785 65.3108 30.9374C65.3108 28.0946 62.9991 25.7812 60.1562 25.7812H59.3312L60.2731 23.5966C62.0383 19.5026 61.7238 14.776 59.4292 10.9535C57.9752 8.53179 55.8491 6.63257 53.2778 5.4621L48.4808 3.27757C42.8227 0.699444 35.872 1.45226 30.8962 5.18538L28.1858 7.21866L28.1892 7.22382C25.5062 7.92335 23.1413 9.64898 21.6872 12.0724C19.7931 15.2263 19.6453 19.0763 21.2919 22.3677L23.0003 25.7812H22.3438C19.5009 25.7812 17.1875 28.0946 17.1875 30.9374C17.1875 33.7785 19.4992 36.0919 22.3438 36.0937H24.0625C24.0625 42.4393 27.5275 47.9788 32.6562 50.9557V55.2629L11.7717 58.7416C5.94516 59.7127 1.71875 64.704 1.71875 70.6096V106.559C1.71875 107.509 2.48703 108.278 3.4375 108.278H56.7188H58.4358H104.842C106.738 108.278 108.28 106.738 108.28 104.84V70.4687C108.281 68.5712 106.74 67.0312 104.844 67.0312ZM104.844 75.6232C104.842 80.3618 100.989 84.2152 96.2483 84.2152H85.9358V79.0607C85.9358 78.1102 85.1675 77.3419 84.217 77.3419H77.342C76.3916 77.3419 75.6233 78.1102 75.6233 79.0607V84.2152H65.3108C60.5739 84.2152 56.7222 80.3652 56.717 75.6318V70.4687H104.842L104.844 75.6232ZM56.7188 84.0262C58.905 86.2605 61.9472 87.6527 65.3125 87.6527H75.625V89.3749C75.625 92.216 77.9384 94.5277 80.7812 94.5277C83.6241 94.5277 85.9375 92.216 85.9375 89.3749V87.6527H96.25C99.617 87.6527 102.659 86.2588 104.845 84.0245L104.847 97.9669H56.7188V84.0262ZM79.0625 89.3749V80.7794H82.5V89.3749C82.5 90.322 81.73 91.0902 80.7812 91.0902H80.7795C79.8325 91.0902 79.0625 90.322 79.0625 89.3749ZM70.4688 62.2101C73.1741 62.7652 75.4067 64.5837 76.5359 67.0312H70.4688V62.2101ZM91.0938 61.8749V67.0312H80.2123C79.2928 64.0904 77.2819 61.648 74.647 60.1562H89.375C90.322 60.1562 91.0938 60.9262 91.0938 61.8749ZM61.8733 30.9374C61.8733 31.8844 61.1033 32.6562 60.1562 32.6562H58.4375V29.2187H60.1562C61.1033 29.2187 61.8733 29.9887 61.8733 30.9374ZM24.6366 13.841C25.9428 11.6634 28.3302 10.3124 30.8687 10.3124C33.5637 10.3124 36.0645 11.6513 37.5598 13.8926L38.0995 14.7021L40.9613 12.796L40.4216 11.9865C38.8713 9.66101 36.5595 8.02991 33.9384 7.30288C37.8297 4.88976 42.8742 4.50132 47.0594 6.40398L51.8564 8.58851C53.79 9.47023 55.3919 10.8985 56.4833 12.7204C58.2089 15.5976 58.4478 19.1537 57.1192 22.2337L57.0023 22.5052L54.8195 18.1379C54.5927 17.6807 54.1733 17.3507 53.6766 17.2338C53.1833 17.1204 52.6591 17.2269 52.25 17.5312L49.5 19.5937C47.1333 21.3674 44.2045 22.3437 41.25 22.3437C38.2955 22.3437 35.365 21.3674 33 19.5919L30.25 17.5294C29.8427 17.2252 29.3253 17.1204 28.8234 17.2321C28.3267 17.349 27.9091 17.6807 27.6805 18.1362L25.3498 22.7957L24.3667 20.8294C23.2495 18.5951 23.3509 15.9826 24.6366 13.841ZM22.3438 32.6562C21.3967 32.6562 20.625 31.8844 20.625 30.9374C20.625 29.9887 21.395 29.2187 22.3438 29.2187H24.0625V32.6562H22.3438ZM27.5 36.0937V26.1868L29.8341 21.5169L30.9375 22.3437C33.8937 24.5609 37.5564 25.7812 41.25 25.7812C44.9436 25.7812 48.6063 24.5609 51.5625 22.3437L52.6642 21.5169L55 26.1868V36.0937C55 43.6751 48.8314 49.8437 41.25 49.8437C33.6669 49.8437 27.5 43.6751 27.5 36.0937ZM41.25 53.2812C43.0461 53.2812 44.7769 53.001 46.4062 52.4888V56.0071L41.25 61.1634L36.0938 56.0071V52.4888C37.7231 53.001 39.4539 53.2812 41.25 53.2812ZM40.6948 72.1857H41.8052L44.6119 79.1982L41.25 93.7612L37.8881 79.1982L40.6948 72.1857ZM44.5088 65.058L42.0475 68.7482H40.4508L37.9895 65.058L38.5619 63.3376L40.0331 64.8088C40.3683 65.144 40.8083 65.3107 41.25 65.3107C41.69 65.3107 42.13 65.144 42.4652 64.8088L43.9364 63.3376L44.5088 65.058ZM22.342 104.84V75.6232H18.9045V104.84H5.15625V70.6096C5.15625 66.3918 8.17609 62.8271 12.3355 62.1327L33.7837 58.5594L35.8445 60.6202L34.4627 64.7676C34.2942 65.2694 34.3681 65.8229 34.662 66.2646L37.5977 70.668L34.497 78.4196C34.3664 78.7445 34.3389 79.102 34.418 79.4457L39.5742 101.789C39.753 102.568 40.4491 103.12 41.25 103.12C42.0492 103.12 42.7453 102.568 42.9241 101.789L48.0803 79.4457C48.1594 79.1037 48.1319 78.7462 48.0012 78.4196L44.9006 70.668L47.8363 66.2646C48.1302 65.8229 48.2041 65.2694 48.0356 64.7676L46.6537 60.6202L48.7145 58.5594L67.057 61.6154C67.0536 61.703 67.0312 61.7855 67.0312 61.8749V67.0312H56.7188C54.823 67.0312 53.2812 68.5712 53.2812 70.4687V75.6232V75.6404V104.84H22.342ZM58.4358 104.84H56.7188V101.403H104.845V104.84H58.4358Z" fill="black"/>
</svg>
