<svg width="110" height="110" viewBox="0 0 110 110" fill="none" xmlns="http://www.w3.org/2000/svg">
<g clip-path="url(#clip0)">
<path d="M30.198 39.7862V28.6031H28.0719C27.5541 28.6031 27.0585 28.5124 26.5948 28.353C24.4464 29.319 22.7964 31.7675 22.7964 34.2249C22.7964 37.7393 26.2685 40.6223 30.2081 40.1898C30.2042 40.0551 30.198 39.9211 30.198 39.7862Z" fill="#FFB1A0"/>
<path d="M63.9218 28.0094C63.4318 28.38 62.8246 28.6032 62.1664 28.6032C61.7715 28.6032 61.1712 28.5609 60.7991 28.4821V39.7863C60.7991 39.9225 60.7924 40.057 60.7888 40.1921C64.7247 40.6106 68.2009 37.7283 68.2009 34.2044C68.2009 31.5331 66.4613 28.8129 63.9218 28.0094Z" fill="#FFB1A0"/>
<path d="M30.198 39.1722C28.4528 38.0819 27.2873 36.26 27.2873 34.2248C27.2873 32.1198 28.5001 30.024 30.198 28.8582V28.603H28.0719C27.5541 28.603 27.0585 28.5123 26.5948 28.3529C24.4464 29.3188 22.7964 31.7674 22.7964 34.2248C22.7964 37.7392 26.2685 40.6222 30.2081 40.1897C30.2044 40.0552 30.1982 39.921 30.1982 39.786V39.1722H30.198Z" fill="#FFA68E"/>
<path d="M65.2904 28.6726C64.868 28.3905 64.4102 28.1639 63.9221 28.0094C63.432 28.38 62.8249 28.6032 62.1666 28.6032C61.7717 28.6032 61.1714 28.5609 60.7993 28.4821V39.7863C60.7993 39.9225 60.7926 40.057 60.789 40.1921C62.4465 40.3685 64.0213 39.9575 65.2904 39.1617V28.6726Z" fill="#FFA68E"/>
<path d="M40.8819 104.898V102.524C40.8819 102.108 41.2155 101.771 41.6274 101.771L47.819 101.556C45.9567 101.001 44.617 99.2588 44.617 97.2747V66.3928L36.6552 58.5441C36.542 58.7037 36.4028 58.8315 36.2532 58.9329L14.2621 67.5218C10.6763 68.9976 5.87473 73.6408 5.87473 80.5311V88.7342H18.6531V108.392H44.3415C42.4386 108.392 40.8819 106.82 40.8819 104.898Z" fill="#FF656F"/>
<path d="M13.4611 77.9652C13.4611 72.1538 17.0283 67.7193 19.1018 65.6318L14.262 67.522C10.6763 68.9978 5.87473 73.641 5.87473 80.5312V88.7342H13.4611C13.4611 84.4184 13.4611 80.4528 13.4611 77.9652Z" fill="#FF4756"/>
<path d="M55.2798 59.3443C54.6853 59.1146 54.0756 58.3279 54.0739 57.6872L54.0696 51.9455C48.6181 55.5128 41.7204 55.0307 36.9141 51.9227V57.678C36.9141 58.0469 36.8099 58.3262 36.6552 58.5442L44.6169 66.3929V63.6517C44.6169 61.1894 46.6201 59.401 49.0824 59.401H55.4261C55.3614 59.3759 55.3109 59.3563 55.2798 59.3443Z" fill="#FFB1A0"/>
<path d="M36.9141 51.9225V57.6777C36.9141 58.0466 36.8099 58.3259 36.6552 58.544L44.6169 66.3927V63.6515V54.4104C41.8342 54.2434 39.148 53.3673 36.9141 51.9225Z" fill="#FFA68E"/>
<path d="M42.1077 72.3441L44.402 70.2647V65.8511L36.7413 58.4053C36.6186 58.6332 36.4435 58.8038 36.2534 58.9329L28.6269 61.9115L39.0595 72.3441C39.8976 73.1825 41.2693 73.1825 42.1077 72.3441Z" fill="#FF7F87"/>
<path d="M5.87473 88.3579H19.4346V96.1103H5.87473V88.3579Z" fill="#FF7F87"/>
<path d="M13.4611 88.3579H5.87473V96.1103H13.4611C13.4611 93.5464 13.4611 90.8862 13.4611 88.3579Z" fill="#FF656F"/>
<path d="M19.4346 95.5909H5.87473V105.597C5.87473 107.141 7.12619 108.392 8.66963 108.392H19.4346V95.5909Z" fill="#FFB1A0"/>
<path d="M13.4611 95.5909H5.87473V105.597C5.87473 107.141 7.12619 108.392 8.66963 108.392H13.4609C13.4611 105.771 13.4611 100.851 13.4611 95.5909Z" fill="#FFA68E"/>
<path d="M56.5888 22.596C56.5888 22.2969 56.1885 22.194 56.0476 22.4576C54.2291 25.8586 50.6457 28.1733 46.5194 28.1733H38.6586V39.9849C38.6586 46.4627 42.7068 52.487 49.2247 54.6702C55.9735 53.081 61.0137 47.0131 61.0137 39.7864V28.0524C58.4945 27.5176 56.5888 25.2689 56.5888 22.596Z" fill="#FFCEBE"/>
<path d="M38.8496 39.7863V28.1736H29.983V39.7863C29.983 47.7796 36.2459 55.0802 45.7196 55.0802C47.2087 55.0802 48.6471 54.8623 50.009 54.4636C43.1497 52.5485 38.8496 46.4072 38.8496 39.7863Z" fill="#FFB1A0"/>
<path d="M60.0201 8.68595C58.5587 8.79832 57.2181 7.87942 56.9366 6.44103C56.4629 4.01865 55.2636 1.61475 50.5787 1.61475H34.3248C28.3594 1.61475 23.5235 6.4507 23.5235 12.4159V24.2702C23.5235 26.782 25.5595 28.818 28.0713 28.818H46.519C50.6451 28.818 54.2287 26.5033 56.0472 23.1023C56.1881 22.8387 56.5884 22.9416 56.5884 23.2407C56.5884 26.3084 59.0982 28.8183 62.166 28.8183C63.7739 28.8183 65.0896 27.5025 65.0896 25.8946C65.0896 21.4007 65.0896 18.1183 65.0896 13.5243C65.0898 10.6099 62.5473 8.49152 60.0201 8.68595Z" fill="#FFE181"/>
<path d="M33.5818 24.5762V12.3213C33.5818 7.25676 36.9546 2.98223 41.5757 1.61475H34.3249C28.3596 1.61475 23.5237 6.45066 23.5237 12.4158V24.27C23.5237 26.7818 25.5597 28.8178 28.0715 28.8178H36.2532C34.673 28.0601 33.5818 26.4457 33.5818 24.5762Z" fill="#FEC458"/>
<path d="M95.9246 59.1863H48.6528C46.1905 59.1863 44.1873 61.1895 44.1873 63.6518V97.2749C44.1873 99.259 45.527 101.216 47.3893 101.771H97.1879C99.0502 101.216 100.39 99.259 100.39 97.2749C100.39 95.7983 100.39 65.1255 100.39 63.6518C100.39 61.1895 98.3869 59.1863 95.9246 59.1863Z" fill="#DFEBFA"/>
<path d="M54.8908 97.2749V63.6518C54.8908 61.1895 56.8941 59.1863 59.3564 59.1863H48.6528C46.1905 59.1863 44.1873 61.1895 44.1873 63.6518V97.2749C44.1873 99.259 45.527 101.216 47.3893 101.771H58.0929C56.2306 101.216 54.8908 99.259 54.8908 97.2749Z" fill="#B1DBFC"/>
<path d="M72.5003 82.9963C71.7501 83.3723 70.8665 83.3723 70.116 82.9963L59.6243 77.7395V88.2112C59.6243 89.0961 60.0966 89.9237 60.8754 90.3437C63.9809 92.0182 67.5325 92.9713 71.3082 92.9713C75.0838 92.9713 78.6354 92.0182 81.741 90.3437C82.5198 89.9237 82.992 89.0961 82.992 88.2112V77.7397L72.5003 82.9963Z" fill="#6E60B8"/>
<path d="M64.8837 90.7354V80.3748L59.6245 77.7397V88.2114C59.6245 89.0964 60.0968 89.924 60.8756 90.344C62.277 91.0996 63.7702 91.7067 65.3329 92.1474C65.047 91.7409 64.8837 91.2491 64.8837 90.7354Z" fill="#6353B2"/>
<path d="M103.38 101.556H41.1977C40.7858 101.556 40.4522 101.893 40.4522 102.309V104.898C40.4522 106.82 42.0091 108.392 43.912 108.392H100.666C102.568 108.392 104.125 106.82 104.125 104.898V102.309C104.125 101.893 103.791 101.556 103.38 101.556Z" fill="#B1DBFC"/>
<path d="M51.1557 104.898V102.309C51.1557 101.893 51.4895 101.556 51.9012 101.556H41.1977C40.7858 101.556 40.4522 101.893 40.4522 102.309V104.898C40.4522 106.82 42.0091 108.392 43.912 108.392H54.6155C52.7124 108.392 51.1557 106.82 51.1557 104.898Z" fill="#8BCAFF"/>
<path d="M87.6019 73.9697L72.5007 66.4033C71.7504 66.0273 70.8668 66.0273 70.1163 66.4033L58.8515 72.0473C58.9519 72.3502 59.1615 72.6225 59.4905 72.7872L75.9955 81.0569C76.3356 81.2272 76.7005 81.3235 77.0698 81.3512L87.6019 76.0742C88.4682 75.6404 88.4682 74.404 87.6019 73.9697Z" fill="#9790CC"/>
<path d="M75.8564 80.9332L59.5772 72.7767C59.2382 72.6068 59.024 72.3225 58.9312 72.0076L55.0148 73.9697C54.1486 74.4039 54.1486 75.6404 55.0148 76.0746L70.116 83.6409C70.8662 84.0169 71.7498 84.0169 72.5003 83.6409L77.3177 81.2272C76.8193 81.2577 76.3148 81.1629 75.8564 80.9332Z" fill="#8479C2"/>
<path d="M91.4502 91.7048L90.7616 89.0779C90.4675 87.9558 89.4337 87.224 88.2735 87.235C88.2662 87.235 88.2589 87.235 88.2516 87.235C88.2443 87.235 88.237 87.235 88.2297 87.235C87.0695 87.224 86.0357 87.9556 85.7416 89.0779L85.053 91.7048C84.7696 92.7857 85.5852 93.8425 86.7026 93.8425H89.8006C90.918 93.8425 91.7336 92.7857 91.4502 91.7048Z" fill="#FFE181"/>
<path d="M8.66962 110H100.665C103.462 110 105.737 107.71 105.737 104.895V102.306C105.737 101.002 104.679 99.9414 103.38 99.9414H101.369C101.773 99.1252 102.001 98.2164 102.001 97.2715V63.6484C102.001 60.2977 99.2755 57.5715 95.9248 57.5715H75.0683C74.1781 57.5715 73.4569 58.2929 73.4569 59.1828C73.4569 60.0727 74.1781 60.7942 75.0683 60.7942H95.9248C97.4985 60.7942 98.7788 62.0744 98.7788 63.6484V97.2715C98.7788 98.4536 98.0268 99.5231 96.9262 99.9414H47.6542C46.5177 99.5061 45.7988 98.4147 45.7988 97.2715C45.7988 93.9753 45.7988 66.9203 45.7988 63.6484C45.7988 62.0746 47.0793 60.7942 48.653 60.7942H67.5487C68.4388 60.7942 69.16 60.0727 69.16 59.1828C69.16 58.2929 68.4388 57.5715 67.5487 57.5715H55.6853L55.6819 53.4295C59.3727 50.728 61.9289 46.569 62.5002 41.8066C66.6929 41.439 69.8127 38.0966 69.8127 34.201C69.8127 31.5333 68.4594 29.0654 66.3533 27.6313C66.5771 27.095 66.7017 26.5074 66.7017 25.8908V22.7328C66.7017 21.8429 65.9805 21.1215 65.0904 21.1215C64.2003 21.1215 63.4791 21.8429 63.4791 22.7328V25.8912C63.4791 26.5916 62.9207 27.2138 62.1094 27.2005C59.8918 27.1681 58.2005 25.3301 58.2005 23.2373C58.2005 22.3643 57.6088 21.6064 56.7617 21.3939C55.8978 21.178 55.0279 21.59 54.6268 22.3392C53.0227 25.3395 49.9163 27.2035 46.5198 27.2035H28.0721C26.5269 27.2035 25.1356 25.948 25.1356 24.267V12.4125C25.1356 7.34514 29.258 3.22268 34.3254 3.22268H50.5793C54.3539 3.22268 54.9927 4.88967 55.3557 6.74701C55.7852 8.94337 57.8419 10.4662 60.144 10.2892C61.7607 10.165 63.4786 11.5656 63.4786 13.5209V15.2132C63.4786 16.1031 64.1999 16.8245 65.09 16.8245C65.9801 16.8245 66.7013 16.1031 66.7013 15.2132V13.5209C66.7013 9.63797 63.3345 6.81167 59.8967 7.07593C59.2148 7.13008 58.636 6.72982 58.5183 6.12847C57.712 2.00472 55.1151 0 50.5791 0H34.3252C27.4811 0 21.9127 5.56815 21.9127 12.4125V24.2668C21.9127 25.9542 22.5953 27.485 23.6983 28.5985C22.1394 30.0696 21.185 32.1138 21.185 34.2217C21.185 38.1024 24.2945 41.4506 28.4964 41.8085C29.0522 46.4857 31.5165 50.6691 35.3029 53.4106V57.5711C30.9961 59.2531 18.0257 64.3189 13.6762 66.0175C13.6671 66.0209 13.6581 66.0246 13.6491 66.0282C9.12875 67.8886 4.26357 73.2195 4.26357 80.5275V105.593C4.26336 108.023 6.23994 110 8.66962 110ZM62.6255 30.403C63.1297 30.3499 63.6372 30.2047 64.0551 30.0111C65.5553 30.7742 66.5898 32.4378 66.5898 34.2012C66.5898 36.4043 64.8386 38.1789 62.6255 38.5456V30.403ZM28.3718 38.5495C26.1578 38.1911 24.4075 36.4187 24.4075 34.2217C24.4075 32.6799 25.3575 31.13 26.7716 30.2865C27.468 30.4367 27.9494 30.426 28.3718 30.426V38.5495ZM102.514 103.164V104.895C102.514 105.933 101.685 106.777 100.665 106.777H43.9118C42.8926 106.777 42.0633 105.933 42.0633 104.895V103.164H102.514ZM48.653 57.5715C45.8205 57.5715 43.4348 59.5195 42.7643 62.146L38.5127 57.8944C38.5297 57.6267 38.5254 58.1174 38.5254 55.2447C40.8487 56.2483 43.2827 56.6883 45.7199 56.6883C48.1152 56.6883 50.3941 56.1844 52.4607 55.2821L52.4626 57.5715H48.653ZM31.5945 39.7829V30.426H46.5196C50.0815 30.426 53.3912 28.9055 55.6974 26.3708C56.4538 27.9263 57.7569 29.1661 59.3532 29.848C59.3699 29.8551 59.386 29.8633 59.4028 29.8704V39.7831C59.4028 44.4279 57.0395 48.7136 53.2021 51.2303C43.9717 57.0761 31.5945 50.8079 31.5945 39.7829ZM36.589 60.5286L42.5759 66.5153V69.594L40.9682 71.2017C40.7594 71.4108 40.4079 71.4108 40.199 71.2017L31.5096 62.5125L36.589 60.5286ZM7.48604 80.5277C7.48604 74.3161 11.8925 70.2424 14.8625 69.0137L28.2319 63.7923L37.92 73.4804C39.1818 74.7421 41.1186 74.9207 42.5759 74.01V97.2715C42.5759 98.1603 42.7884 99.1022 43.2039 99.9414H41.1977C39.8981 99.9414 38.8406 101.002 38.8406 102.306V104.895C38.8406 105.563 38.9744 106.212 39.1977 106.777H21.046C21.046 104.054 21.046 86.847 21.046 82.7866C21.046 81.8967 20.3248 81.1753 19.4347 81.1753C18.5446 81.1753 17.8233 81.8967 17.8233 82.7866V86.7432H7.48604V80.5277ZM7.48604 89.9659H17.8233V93.9764H7.48604V89.9659ZM7.48604 97.1991H17.8233V106.778H8.66962C8.01714 106.778 7.48604 106.246 7.48604 105.594V97.1991Z" fill="black"/>
<path d="M54.2932 72.526C53.3438 73.0016 52.754 73.9568 52.754 75.0188C52.754 76.0808 53.3438 77.036 54.2934 77.5119L58.0132 79.3757V88.208C58.0132 89.7005 58.8169 91.0613 60.111 91.7589C67.0898 95.5217 75.542 95.5138 82.506 91.7589C82.9269 91.5318 83.2949 91.2338 83.6015 90.8847L83.4945 91.2929C82.9434 93.395 84.5275 95.4504 86.7028 95.4504H89.8009C91.9736 95.4504 93.5609 93.3971 93.0094 91.2929C93.0094 91.2929 93.0094 91.2929 93.0094 91.2927L92.3208 88.666C91.9863 87.39 91.0573 86.3942 89.8634 85.9218V75.0188C89.8634 73.9568 89.2737 73.0016 88.324 72.5257L73.2228 64.9593C72.0244 64.3588 70.5935 64.359 69.3951 64.9593L54.2932 72.526ZM88.2516 88.843C88.7759 88.84 89.1099 89.1281 89.2032 89.4831L89.8918 92.11C89.9074 92.1706 89.8634 92.2277 89.8007 92.2277H86.7026C86.6405 92.2277 86.5956 92.171 86.6117 92.11L87.3003 89.4828C87.394 89.126 87.719 88.8394 88.2516 88.843ZM84.6038 79.3757L86.6403 78.3551V85.9199C85.7854 86.2584 85.0659 86.8671 84.6038 87.6567V79.3757ZM81.3811 88.208C81.3811 88.5094 81.2223 88.7898 80.9765 88.9223C74.9533 92.1701 67.6512 92.1635 61.6404 88.9223C61.3947 88.7898 61.2359 88.5094 61.2359 88.208V80.9902L69.3946 85.0781C70.5679 85.6663 71.9999 85.6906 73.2223 85.0781L81.3811 80.9902V88.208ZM71.7788 67.8408L82.8889 73.4075H71.3085C70.4184 73.4075 69.6971 74.1289 69.6971 75.0188C69.6971 75.9087 70.4184 76.6301 71.3085 76.6301H82.8893C81.7637 77.1941 73.0288 81.5707 71.7788 82.197C71.4842 82.3446 71.1325 82.3446 70.838 82.197L56.5117 75.0188L70.838 67.8408C71.1325 67.6932 71.4842 67.6932 71.7788 67.8408Z" fill="black"/>
</g>
<defs>
<clipPath id="clip0">
<rect width="110" height="110" fill="white"/>
</clipPath>
</defs>
</svg>
