<svg width="109" height="109" viewBox="0 0 109 109" fill="none" xmlns="http://www.w3.org/2000/svg">
<g clip-path="url(#clip0)">
<path d="M79.6155 59.9481H79.906C72.6418 70.8444 73.3864 71.8251 71.6249 80.306C71.0256 83.2298 68.5376 85.3728 65.5411 85.3728H43.4217C40.4252 85.3728 37.9372 83.2298 37.3379 80.306C35.5763 71.8251 36.3209 70.8444 29.0567 59.9481H29.3473C23.536 53.7917 19.9765 45.4742 19.9765 36.3395C19.9765 17.2892 35.4311 1.83466 54.4814 1.83466C73.5317 1.83466 88.9863 17.2892 88.9863 36.3395C88.9863 45.4742 85.4268 53.7917 79.6155 59.9481Z" fill="#CFF2F8"/>
<path d="M50.8493 54.5V12.7309H45.4011C43.3951 12.7309 41.7691 14.357 41.7691 16.363V18.1791H38.137C36.1309 18.1791 34.5049 19.8051 34.5049 21.8112V29.0753H32.6888C30.6828 29.0753 29.0567 30.7014 29.0567 32.7074V45.4198H36.3209V50.8679C36.3209 52.874 37.947 54.5 39.953 54.5H50.8493Z" fill="#F88756"/>
<path d="M58.1135 54.5V12.7309H63.5616C65.5677 12.7309 67.1937 14.357 67.1937 16.363V18.1791H70.8258C72.8319 18.1791 74.4579 19.8051 74.4579 21.8112V29.0753H76.274C78.28 29.0753 79.906 30.7014 79.906 32.7074V41.7877H72.6419V50.8679C72.6419 52.874 71.0158 54.5 69.0098 54.5H58.1135Z" fill="#3F708D"/>
<path d="M67.1937 45.4198H63.5616V41.7877C63.5616 40.7848 64.3739 39.9716 65.3777 39.9716H72.6419V43.6037H67.1937V45.4198Z" fill="#2E5166"/>
<path d="M67.1937 30.8914H63.5616V27.2593H58.1135V23.6272H65.3777C66.3815 23.6272 67.1937 24.4403 67.1937 25.4432V30.8914Z" fill="#2E5166"/>
<path d="M38.137 45.4198H34.5049V38.1556C34.5049 37.1527 35.3171 36.3395 36.3209 36.3395H41.7691V39.9716H38.137V45.4198Z" fill="#E15D2D"/>
<path d="M43.5851 18.1791H39.953V23.6272H43.5851V18.1791Z" fill="#E15D2D"/>
<path d="M43.5851 85.3728H65.3777C67.3837 85.3728 69.0097 86.9988 69.0097 89.0049C69.0097 91.0109 67.3837 92.637 65.3777 92.637H43.5851C41.579 92.637 39.953 91.0109 39.953 89.0049C39.953 86.9988 41.579 85.3728 43.5851 85.3728Z" fill="#FFBE00"/>
<path d="M45.4011 92.637H63.5616C65.5676 92.637 67.1937 94.263 67.1937 96.2691C67.1937 98.2751 65.5676 99.9012 63.5616 99.9012H45.4011C43.3951 99.9012 41.769 98.2751 41.769 96.2691C41.769 94.263 43.3951 92.637 45.4011 92.637Z" fill="#FFBE00"/>
<path d="M47.2172 99.9012H61.7455C63.7516 99.9012 65.3776 101.527 65.3776 103.533C65.3776 105.539 63.7516 107.165 61.7455 107.165H47.2172C45.2111 107.165 43.5851 105.539 43.5851 103.533C43.5851 101.527 45.2111 99.9012 47.2172 99.9012Z" fill="#FFBE00"/>
<path d="M47.2437 85.6878L50.8188 85.0569L45.3701 54.183L41.795 54.814L47.2437 85.6878Z" fill="#E15D2D"/>
<path d="M61.7122 85.6889L67.164 54.815L63.5889 54.1837L58.1371 85.0576L61.7122 85.6889Z" fill="#2E5166"/>
<path d="M101.699 65.3963C101.665 65.3963 101.629 65.3954 101.596 65.3936C100.815 65.3484 100.152 64.8111 99.9463 64.0581L95.7485 48.6669L92.4267 55.312C92.1182 55.9274 91.4903 56.3158 90.8023 56.3158H83.5381V52.6837H89.6798L94.626 42.7913C94.9629 42.1191 95.667 41.7148 96.4295 41.7963C97.178 41.8708 97.8041 42.3992 98.0027 43.1254L102.025 57.8747L103.644 53.8249C103.926 53.1234 104.655 52.7067 105.368 52.6837L109 52.7564L108.926 56.3885L106.551 56.3406L103.385 64.2547C103.108 64.9468 102.438 65.3963 101.699 65.3963Z" fill="#E7343A"/>
<path d="M18.1605 65.3971C18.1269 65.3971 18.0912 65.3962 18.0576 65.3943C17.2772 65.3492 16.6141 64.8118 16.4082 64.0589L12.2104 48.6676L8.88864 55.313C8.58014 55.9284 7.95224 56.3168 7.26418 56.3168H0V52.6847H6.14164L11.0879 42.7923C11.4247 42.1201 12.1219 41.7158 12.8914 41.7973C13.6399 41.8718 14.266 42.4002 14.4646 43.1264L18.4869 57.8757L20.1061 53.8259C20.3881 53.1244 21.0993 52.7077 21.83 52.6847L25.4621 52.7574L25.3876 56.3895L23.0129 56.3416L19.8471 64.2559C19.5704 64.9476 18.9 65.3971 18.1605 65.3971Z" fill="#E7343A"/>
<path d="M105.368 52.6843C104.655 52.7074 103.926 53.1242 103.644 53.8254L102.025 57.8752L98.0025 43.126C97.8038 42.3998 97.1778 41.8713 96.4293 41.7968C95.6668 41.7153 94.9626 42.1196 94.6258 42.7918L89.6795 52.6843H86.8989C89.438 47.6683 90.8021 42.0972 90.8021 36.3398C90.8021 16.3127 74.5092 0.0189209 54.4812 0.0189209C34.4531 0.0189209 18.1602 16.3127 18.1602 36.3398C18.1602 42.0992 19.5257 47.672 22.0661 52.689L21.8296 52.6843C21.0988 52.7074 20.3876 53.1242 20.1057 53.8254L18.4864 57.8752L14.4641 43.126C14.2655 42.3998 13.6394 41.8713 12.891 41.7968C12.1212 41.7153 11.4243 42.1196 11.0874 42.7918L6.14119 52.6843H0V56.3163H7.26418C7.95224 56.3163 8.58014 55.9279 8.88864 55.3125L12.2104 48.6674L16.4082 64.0586C16.6139 64.8114 17.2772 65.3489 18.0576 65.3941C18.0912 65.3959 18.1269 65.3968 18.1605 65.3968C18.9 65.3968 19.5704 64.9473 19.8471 64.2557L23.0127 56.3415L24.2311 56.3661C25.1631 57.7662 26.1651 59.1265 27.2974 60.3993C27.3472 60.5943 27.4305 60.7831 27.5458 60.9561C33.5065 69.8963 33.8541 71.7486 34.8881 77.2483C35.0797 78.2583 35.2905 79.3801 35.5584 80.6711C36.0206 82.9237 37.3393 84.7577 39.1154 85.905C38.502 86.7864 38.137 87.8527 38.137 89.0056C38.137 90.9404 39.1578 92.632 40.6819 93.5986C40.2313 94.3913 39.953 95.2946 39.953 96.2698C39.953 98.2046 40.9739 99.8962 42.498 100.863C42.0474 101.656 41.7691 102.559 41.7691 103.534C41.7691 106.538 44.213 108.982 47.2172 108.982H61.7456C64.7498 108.982 67.1937 106.538 67.1937 103.534C67.1937 102.559 66.9154 101.656 66.4648 100.863C67.9889 99.896 69.0098 98.2046 69.0098 96.2698C69.0098 95.2946 68.7314 94.3916 68.2808 93.5986C69.805 92.6318 70.8258 90.9404 70.8258 89.0056C70.8258 87.8527 70.461 86.7867 69.8476 85.9052C71.6237 84.7584 72.9422 82.9257 73.4044 80.6757C73.6722 79.3801 73.8831 78.2585 74.0747 77.2483C75.1087 71.7486 75.4563 69.8963 81.417 60.9561C81.5323 60.7831 81.6156 60.5943 81.6653 60.3993C82.811 59.1115 83.8242 57.7349 84.7649 56.3168H90.8023C91.4904 56.3168 92.1183 55.9284 92.4268 55.313L95.7485 48.6678L99.9463 64.0591C100.152 64.8118 100.815 65.3494 101.596 65.3945C101.629 65.3964 101.665 65.3973 101.699 65.3973C102.438 65.3973 103.109 64.9478 103.385 64.2561L106.551 56.342L108.926 56.3899L109 52.7578L105.368 52.6843ZM65.3777 87.1891C66.3797 87.1891 67.1937 88.0041 67.1937 89.0052C67.1937 90.0063 66.3797 90.8212 65.3777 90.8212H63.5616H45.4012H43.5851C42.5831 90.8212 41.7691 90.0063 41.7691 89.0052C41.7691 88.0041 42.5831 87.1891 43.5851 87.1891H65.3777ZM65.3777 96.2694C65.3777 97.2705 64.5636 98.0854 63.5616 98.0854H61.7456H47.2172H45.4012C44.3992 98.0854 43.5851 97.2705 43.5851 96.2694C43.5851 95.2683 44.3992 94.4533 45.4012 94.4533H63.5616C64.5636 94.4533 65.3777 95.2683 65.3777 96.2694ZM61.7456 105.35H47.2172C46.2152 105.35 45.4012 104.535 45.4012 103.534C45.4012 102.532 46.2152 101.718 47.2172 101.718H61.7456C62.7476 101.718 63.5616 102.532 63.5616 103.534C63.5616 104.535 62.7476 105.35 61.7456 105.35ZM78.2938 58.7017C77.9976 59.0166 77.8292 59.42 77.8026 59.8349C71.9944 68.6518 71.5456 71.0443 70.5048 76.5766C70.3187 77.5661 70.1112 78.6667 69.847 79.9417C69.4106 82.0699 67.6389 83.557 65.5409 83.557H65.3777H62.0933L66.9004 56.3163H69.0098C72.014 56.3163 74.4579 53.8724 74.4579 50.8682V43.604H79.906C80.9099 43.604 81.7221 42.7909 81.7221 41.788V32.7078C81.7221 29.7036 79.2781 27.2596 76.2739 27.2596V21.8115C76.2739 18.8073 73.83 16.3633 70.8258 16.3633H69.0098C69.0098 13.3591 66.5658 10.9152 63.5616 10.9152H58.1135C57.1097 10.9152 56.2974 11.7283 56.2974 12.7312V54.5003C56.2974 55.5032 57.1097 56.3163 58.1135 56.3163H63.2138L58.4068 83.557H50.5562L45.7492 56.3163H50.8493C51.8531 56.3163 52.6653 55.5032 52.6653 54.5003V12.7312C52.6653 11.7283 51.8531 10.9152 50.8493 10.9152H45.4012C42.397 10.9152 39.953 13.3591 39.953 16.3633H38.137C35.1328 16.3633 32.6888 18.8073 32.6888 21.8115V27.2596C29.6846 27.2596 27.2407 29.7036 27.2407 32.7078V45.4201C27.2407 46.423 28.0529 47.2361 29.0567 47.2361H34.5049V50.8682C34.5049 53.8724 36.9488 56.3163 39.953 56.3163H42.0624L46.8694 83.557H43.5851H43.4219C41.3239 83.557 39.5521 82.0699 39.1158 79.9374C38.8516 78.6667 38.6441 77.5664 38.458 76.5766C37.4169 71.0443 36.9681 68.6518 31.1602 59.8349C31.1336 59.42 30.9652 59.0166 30.6689 58.7017C24.9441 52.6382 21.7926 44.6973 21.7926 36.3398C21.7926 18.3151 36.4576 3.65101 54.4814 3.65101C72.5052 3.65101 87.1702 18.3151 87.1702 36.3398C87.1702 44.6973 84.0187 52.6382 78.2938 58.7017ZM59.9295 27.2596H63.5616V30.8917H67.1937V25.4436C67.1937 24.4407 66.3815 23.6275 65.3777 23.6275H59.9295V14.5473H63.5616C64.5636 14.5473 65.3777 15.3622 65.3777 16.3633V18.1794C65.3777 19.1823 66.1899 19.9954 67.1937 19.9954H70.8258C71.8278 19.9954 72.6418 20.8104 72.6418 21.8115V29.0757C72.6418 30.0786 73.4541 30.8917 74.4579 30.8917H76.2739C77.2759 30.8917 78.09 31.7067 78.09 32.7078V39.9719H72.6418H65.3777C64.3738 39.9719 63.5616 40.7851 63.5616 41.788V45.4201H67.1937V43.604H70.8258V50.8682C70.8258 51.8693 70.0118 52.6843 69.0098 52.6843H59.9295V27.2596ZM38.137 45.4201V39.9719H41.7691V36.3398H36.3209C35.3171 36.3398 34.5049 37.153 34.5049 38.1559V43.604H30.8728V32.7078C30.8728 31.7067 31.6868 30.8917 32.6888 30.8917H34.5049C35.5087 30.8917 36.3209 30.0786 36.3209 29.0757V21.8115C36.3209 20.8104 37.135 19.9954 38.137 19.9954H39.953V23.6275H43.5851V18.1794V16.3633C43.5851 15.3622 44.3992 14.5473 45.4012 14.5473H49.0332V52.6843H39.953C38.951 52.6843 38.137 51.8693 38.137 50.8682V45.4201Z" fill="black"/>
</g>
<defs>
<clipPath id="clip0">
<rect width="109" height="109" fill="white"/>
</clipPath>
</defs>
</svg>
