<svg width="100" height="100" viewBox="0 0 100 100" fill="none" xmlns="http://www.w3.org/2000/svg">
<path
        d="M64.6625 36.6701C64.6625 35.0521 63.3461 33.7359 61.7281 33.7359C60.1102 33.7359 58.7939 35.0521 58.7939 36.6701C58.7939 38.2881 60.1102 39.6045 61.7281 39.6045C63.3461 39.6045 64.6625 38.2881 64.6625 36.6701Z" fill="#000"/>
<path
        d="M41.2062 36.6701C41.2062 35.0521 39.89 33.7359 38.2721 33.7359C36.6541 33.7359 35.3377 35.0521 35.3377 36.6701C35.3377 38.2881 36.6541 39.6045 38.2721 39.6045C39.89 39.6045 41.2062 38.2881 41.2062 36.6701Z" fill="#000"/>
<path d="M47.0656 45.4639H52.9346V76.5482H47.0656V45.4639Z" fill="#000"/>
<path
        d="M50 0C29.7801 0 13.3299 16.4502 13.3299 36.6701C13.3299 43.0615 15 49.3551 18.1598 54.8709C20.9465 59.7357 24.8385 63.9227 29.4781 67.0625V76.5482H41.2063V45.4639H38.2721C33.4233 45.4639 29.4783 41.5189 29.4783 36.6701C29.4783 31.8213 33.4233 27.8766 38.2721 27.8766C43.1209 27.8766 47.0656 31.8213 47.0656 36.6701C47.0656 37.6988 46.8865 38.6863 46.5604 39.6045H53.4399C53.1137 38.6861 52.9346 37.6988 52.9346 36.6701C52.9346 31.8213 56.8793 27.8766 61.7281 27.8766C66.577 27.8766 70.5219 31.8213 70.5219 36.6701C70.5219 41.5189 66.577 45.4639 61.7281 45.4639H58.794V76.5482H70.5221V67.0625C75.1617 63.9227 79.0539 59.7357 81.8405 54.8709C85.0002 49.3551 86.6703 43.0613 86.6703 36.6701C86.6701 16.4502 70.2199 0 50 0V0Z" fill="#000"/>
<path d="M29.4781 94.1359H70.5221V99.9999H29.4781V94.1359Z" fill="#000"/>
<path d="M29.4781 82.4078H70.5221V88.2766H29.4781V82.4078Z" fill="#000"/>
</svg>
