<svg width="109" height="109" viewBox="0 0 109 109" fill="none" xmlns="http://www.w3.org/2000/svg">
<path d="M83.0273 83.4531C77.6189 83.4531 73.2344 79.0686 73.2344 73.6602V69.4023C73.2344 63.9939 77.6189 59.6094 83.0273 59.6094C88.4358 59.6094 92.8203 63.9939 92.8203 69.4023V73.6602C92.8203 79.0686 88.4358 83.4531 83.0273 83.4531Z" fill="#FFBF9E"/>
<path d="M92.5568 83.4531H73.4977C65.5922 83.4531 59.1836 89.8618 59.1836 97.7675V106.871H106.871V97.7675C106.871 89.8618 100.462 83.4531 92.5568 83.4531Z" fill="#91DEF5"/>
<path d="M60.8137 44.7336H90.7878C94.0308 44.7336 96.6596 42.1047 96.6596 38.8619V17.3689C96.6596 14.1259 94.0306 11.4972 90.7878 11.4972H60.8137C57.5707 11.4972 54.942 14.1261 54.942 17.3689V38.8619C54.9417 42.1047 57.5707 44.7336 60.8137 44.7336Z" fill="white"/>
<path d="M60.8137 11.4972H90.7878C94.0308 11.4972 96.6596 14.1261 96.6596 17.3689V38.8619C96.6596 42.1049 94.0306 44.7336 90.7878 44.7336H74.252V52.3992L66.5864 44.7336H60.8137C57.5707 44.7336 54.942 42.1047 54.942 38.8619V17.3689C54.9417 14.1259 57.5707 11.4972 60.8137 11.4972Z" fill="#F6838D"/>
<path d="M53.6687 41.7406H19.3386C15.4737 41.7406 12.3404 38.6075 12.3404 34.7425V9.12705C12.3404 5.26202 15.4735 2.12891 19.3386 2.12891H53.6687C57.5335 2.12891 60.6668 5.26202 60.6668 9.12705V34.7425C60.6666 38.6073 57.5335 41.7406 53.6687 41.7406Z" fill="white"/>
<path d="M53.6687 2.12891H19.3386C15.4735 2.12891 12.3404 5.26202 12.3404 9.12705V34.7425C12.3404 38.6075 15.4735 41.7406 19.3386 41.7406H37.6527V50.8764L46.7885 41.7406H53.6687C57.5337 41.7406 60.6668 38.6075 60.6668 34.7425V9.12705C60.6666 5.26202 57.5335 2.12891 53.6687 2.12891Z" fill="#91DEF5"/>
<path d="M36.5035 28.77L31.5074 32.4166C30.2307 33.3485 28.5088 32.0975 29.0004 30.5954L30.9247 24.7168L25.8973 21.0811C24.618 20.1558 25.2725 18.134 26.8513 18.134H33.0555L34.9545 12.2597C35.4403 10.7567 37.5667 10.7567 38.0525 12.2597L39.9515 18.134H46.1558C47.7346 18.134 48.389 20.1558 47.1097 21.0811L42.0823 24.7168L44.0066 30.5954C44.4984 32.0975 42.7765 33.3487 41.4996 32.4166L36.5035 28.77Z" fill="#FFCB7C"/>
<path d="M26.0538 83.4531C20.6453 83.4531 16.2608 79.0686 16.2608 73.6602V69.4023C16.2608 63.9939 20.6453 59.6094 26.0538 59.6094C31.4623 59.6094 35.8467 63.9939 35.8467 69.4023V73.6602C35.8467 79.0686 31.4623 83.4531 26.0538 83.4531Z" fill="#FFBF9E"/>
<path d="M35.5021 83.4531H16.4432C8.53755 83.4531 2.12891 89.8618 2.12891 97.7675V106.871H49.8164V97.7675C49.8164 89.8618 43.4078 83.4531 35.5021 83.4531Z" fill="#FFCB7C"/>
<path d="M92.557 81.3242H92.1499C93.8952 79.2502 94.9492 76.5765 94.9492 73.6602V69.4023C94.9492 62.8287 89.6012 57.4805 83.0273 57.4805C76.4535 57.4805 71.1055 62.8287 71.1055 69.4023V73.6602C71.1055 76.5765 72.1597 79.2502 73.9048 81.3242H73.4977C64.4309 81.3242 57.0547 88.7007 57.0547 97.7675V106.871C57.0547 108.047 58.008 109 59.1836 109H106.871C108.047 109 109 108.047 109 106.871V97.7675C109 88.7007 101.624 81.3242 92.557 81.3242ZM75.3633 73.6602V69.4023C75.3633 65.1763 78.8013 61.7383 83.0273 61.7383C87.2534 61.7383 90.6914 65.1763 90.6914 69.4023V73.6602C90.6914 77.8862 87.2534 81.3242 83.0273 81.3242C78.8013 81.3242 75.3633 77.8862 75.3633 73.6602ZM104.742 104.742H61.3125V97.7675C61.3125 91.0484 66.7789 85.582 73.4977 85.582H80.8984V89.627C80.8984 90.8027 81.8518 91.7559 83.0273 91.7559C84.2029 91.7559 85.1562 90.8027 85.1562 89.627V85.582H92.557C99.2758 85.582 104.742 91.0484 104.742 97.7675V104.742Z" fill="black"/>
<path d="M60.8135 46.8625H65.7047L72.7467 53.9045C73.1539 54.3118 73.6985 54.5281 74.2524 54.5281C74.5266 54.5281 74.8034 54.4749 75.0667 54.3659C75.8621 54.0363 76.3809 53.2601 76.3809 52.399V46.8623H90.7876C95.1994 46.8623 98.7883 43.2732 98.7883 38.8617V17.3689C98.7883 12.9574 95.1994 9.36825 90.7876 9.36825H62.7957V9.12705C62.7957 4.09431 58.7012 0 53.6687 0H46.4104C45.2348 0 44.2815 0.953111 44.2815 2.12891C44.2815 3.3047 45.2348 4.25781 46.4104 4.25781H53.6687C56.3534 4.25781 58.5379 6.44207 58.5379 9.12705V34.7425C58.5379 37.4272 56.3534 39.6117 53.6687 39.6117H46.7887C46.2241 39.6117 45.6827 39.8361 45.2833 40.2353L39.7818 45.7368V41.7406C39.7818 40.5648 38.8285 39.6117 37.6529 39.6117H19.3386C16.6538 39.6117 14.4695 37.4274 14.4695 34.7425V9.12705C14.4695 6.44207 16.6538 4.25781 19.3386 4.25781H27.2509C28.4264 4.25781 29.3798 3.3047 29.3798 2.12891C29.3798 0.953111 28.4264 0 27.2509 0H19.3386C14.3058 0 10.2117 4.09431 10.2117 9.12705V34.7425C10.2117 39.7752 14.3058 43.8695 19.3386 43.8695H35.5238V50.8766C35.5238 51.7375 36.0426 52.5139 36.838 52.8435C37.1013 52.9527 37.3781 53.0057 37.6523 53.0057C38.2064 53.0057 38.7508 52.7892 39.158 52.382L47.6703 43.8697H53.6685C53.9614 43.8697 54.2507 43.8544 54.5368 43.8274C56.0347 45.73 58.3208 46.8625 60.8135 46.8625ZM62.7957 34.7425V13.6261H90.7876C92.8514 13.6261 94.5305 15.3051 94.5305 17.3689V38.8619C94.5305 40.9257 92.8514 42.6047 90.7876 42.6047H74.252C73.0764 42.6047 72.1231 43.5578 72.1231 44.7336V47.2596L68.0918 43.2283C67.6924 42.8291 67.151 42.6047 66.5864 42.6047H60.8135C60.1646 42.6047 59.5464 42.4393 59.0041 42.1404C61.2987 40.4812 62.7957 37.784 62.7957 34.7425Z" fill="black"/>
<path d="M23.2772 18.6049C22.774 20.1599 23.3256 21.8483 24.6498 22.8061L28.4179 25.5313L26.9771 29.9333C26.4681 31.4884 27.0156 33.1796 28.3394 34.1415C29.0002 34.6216 29.7736 34.8615 30.5475 34.8615C31.3237 34.8615 32.1003 34.6199 32.7622 34.1366L36.5033 31.4061L40.2442 34.1366C41.5658 35.1016 43.3435 35.1031 44.667 34.1415C45.991 33.1796 46.5383 31.4887 46.0293 29.9333L44.5885 25.5313L48.3566 22.8061C49.681 21.8483 50.2326 20.1599 49.7291 18.6049C49.2256 17.05 47.7895 16.0051 46.1549 16.0051H41.5L40.0775 11.6047C39.5745 10.0489 38.1379 9.00357 36.5027 9.00357C34.8677 9.00357 33.4311 10.0489 32.928 11.6049L31.5055 16.0051H26.8506C25.2169 16.0051 23.7805 17.0498 23.2772 18.6049ZM33.0557 20.2629C33.9793 20.2629 34.7974 19.6677 35.0816 18.7889L36.5039 14.3893L37.926 18.7889C38.2102 19.6677 39.0284 20.2629 39.9519 20.2629H44.6085L40.8352 22.9918C40.0852 23.5342 39.7716 24.4992 40.0594 25.3791L41.5005 29.7815L37.7591 27.0507C37.0115 26.5049 35.9966 26.5049 35.2489 27.0507L31.5074 29.7817L32.9484 25.3793C33.2365 24.4995 32.9229 23.5344 32.1727 22.992L28.399 20.2629H33.0557Z" fill="black"/>
<path d="M70.49 30.2443H81.1113C82.2869 30.2443 83.2402 29.2912 83.2402 28.1154C83.2402 26.9396 82.2869 25.9865 81.1113 25.9865H70.49C69.3144 25.9865 68.3611 26.9396 68.3611 28.1154C68.3611 29.2912 69.3144 30.2443 70.49 30.2443Z" fill="black"/>
<path d="M35.5023 81.3242H35.1763C36.9216 79.2502 37.9756 76.5765 37.9756 73.6602V69.4023C37.9756 62.8287 32.6276 57.4805 26.0538 57.4805C19.4799 57.4805 14.1319 62.8287 14.1319 69.4023V73.6602C14.1319 76.5765 15.1861 79.2502 16.9312 81.3242H16.443C7.37623 81.3242 0 88.7007 0 97.7675V106.871C0 108.047 0.953324 109 2.12891 109H49.8164C50.992 109 51.9453 108.047 51.9453 106.871V97.7675C51.9453 88.7007 44.5691 81.3242 35.5023 81.3242ZM18.3897 69.4023C18.3897 65.1763 21.8277 61.7383 26.0538 61.7383C30.2799 61.7383 33.7178 65.1763 33.7178 69.4023V73.6602C33.7178 77.8862 30.2799 81.3242 26.0538 81.3242C21.8277 81.3242 18.3897 77.8862 18.3897 73.6602V69.4023ZM47.6875 104.742H4.25781V97.7675C4.25781 91.0484 9.72421 85.582 16.443 85.582H23.8438V89.627C23.8438 90.8027 24.7971 91.7559 25.9727 91.7559C27.1482 91.7559 28.1016 90.8027 28.1016 89.627V85.582H35.5023C42.2211 85.582 47.6875 91.0484 47.6875 97.7675V104.742Z" fill="black"/>
<path d="M36.8301 4.25781C37.3921 4.25781 37.9392 4.03002 38.335 3.63404C38.7312 3.23807 38.959 2.68881 38.959 2.12891C38.959 1.569 38.7312 1.01975 38.335 0.62377C37.9392 0.227793 37.39 0 36.8301 0C36.2702 0 35.7209 0.227793 35.3249 0.62377C34.9288 1.01975 34.7012 1.569 34.7012 2.12891C34.7012 2.68881 34.9288 3.23807 35.3249 3.63404C35.7211 4.03002 36.2702 4.25781 36.8301 4.25781Z" fill="black"/>
</svg>
