<svg width="110" height="110" viewBox="0 0 110 110" fill="none" xmlns="http://www.w3.org/2000/svg">
<path d="M51.5625 58.4375H20.625C16.9783 58.4375 13.4809 59.8862 10.9023 62.4648C8.32366 65.0434 6.875 68.5408 6.875 72.1875V89.375H65.3125V72.1875C65.3125 68.5408 63.8638 65.0434 61.2852 62.4648C58.7066 59.8862 55.2092 58.4375 51.5625 58.4375Z" fill="#C2C2C2"/>
<path d="M65.3125 90.2344H6.875C6.64708 90.2344 6.42849 90.1438 6.26733 89.9827C6.10617 89.8215 6.01562 89.6029 6.01562 89.375V72.1875C6.02017 68.3142 7.56083 64.6009 10.2996 61.8621C13.0384 59.1233 16.7517 57.5827 20.625 57.5781H51.5625C55.4358 57.5827 59.1491 59.1233 61.8879 61.8621C64.6267 64.6009 66.1673 68.3142 66.1719 72.1875V89.375C66.1719 89.6029 66.0813 89.8215 65.9202 89.9827C65.759 90.1438 65.5404 90.2344 65.3125 90.2344ZM7.73438 88.5156H64.4531V72.1875C64.4495 68.7698 63.0902 65.4931 60.6735 63.0765C58.2569 60.6598 54.9802 59.3005 51.5625 59.2969H20.625C17.2073 59.3005 13.9306 60.6598 11.514 63.0765C9.0973 65.4931 7.73801 68.7698 7.73438 72.1875V88.5156Z" fill="#212A41"/>
<path d="M20.625 72.1875V89.375H79.0625V72.1875C79.0625 68.5408 77.6138 65.0434 75.0352 62.4648C72.4566 59.8862 68.9592 58.4375 65.3125 58.4375H34.375C30.7283 58.4375 27.2309 59.8862 24.6523 62.4648C22.0737 65.0434 20.625 68.5408 20.625 72.1875Z" fill="#E0E0E0"/>
<path d="M79.0625 90.2344H20.625C20.3971 90.2344 20.1785 90.1438 20.0173 89.9827C19.8562 89.8215 19.7656 89.6029 19.7656 89.375V72.1875C19.7702 68.3142 21.3108 64.6009 24.0496 61.8621C26.7884 59.1233 30.5017 57.5827 34.375 57.5781H65.3125C69.1858 57.5827 72.8991 59.1233 75.6379 61.8621C78.3767 64.6009 79.9173 68.3142 79.9219 72.1875V89.375C79.9219 89.6029 79.8313 89.8215 79.6702 89.9827C79.509 90.1438 79.2904 90.2344 79.0625 90.2344ZM21.4844 88.5156H78.2031V72.1875C78.1995 68.7698 76.8402 65.4931 74.4235 63.0765C72.0069 60.6598 68.7302 59.3005 65.3125 59.2969H34.375C30.9573 59.3005 27.6806 60.6598 25.264 63.0765C22.8473 65.4931 21.488 68.7698 21.4844 72.1875V88.5156Z" fill="#212A41"/>
<path d="M75.625 85.0781C75.3971 85.0781 75.1785 84.9876 75.0173 84.8264C74.8562 84.6653 74.7656 84.4467 74.7656 84.2188V72.1875C74.7624 69.6814 73.7655 67.2788 71.9934 65.5066C70.2212 63.7345 67.8186 62.7376 65.3125 62.7344C65.0846 62.7344 64.866 62.6438 64.7048 62.4827C64.5437 62.3215 64.4531 62.1029 64.4531 61.875C64.4531 61.6471 64.5437 61.4285 64.7048 61.2673C64.866 61.1062 65.0846 61.0156 65.3125 61.0156C68.2743 61.0193 71.1138 62.1975 73.2082 64.2918C75.3025 66.3862 76.4807 69.2257 76.4844 72.1875V84.2188C76.4844 84.4467 76.3938 84.6653 76.2327 84.8264C76.0715 84.9876 75.8529 85.0781 75.625 85.0781Z" fill="#C2C2C2"/>
<path d="M10.3125 86.7969C10.0846 86.7969 9.86599 86.7064 9.70483 86.5452C9.54367 86.384 9.45312 86.1654 9.45312 85.9375V72.1875C9.45676 69.2257 10.635 66.3862 12.7293 64.2918C14.8237 62.1975 17.6632 61.0193 20.625 61.0156C20.7379 61.0151 20.8497 61.0367 20.9542 61.0794C21.0587 61.1221 21.1537 61.1849 21.2339 61.2643C21.3141 61.3437 21.3779 61.4381 21.4216 61.5422C21.4653 61.6462 21.4881 61.7579 21.4887 61.8707C21.4892 61.9836 21.4676 62.0954 21.4249 62.1999C21.3822 62.3044 21.3194 62.3994 21.24 62.4796C21.1606 62.5598 21.0662 62.6236 20.9621 62.6673C20.8581 62.711 20.7464 62.7338 20.6336 62.7344H20.625C18.1189 62.7376 15.7163 63.7345 13.9441 65.5067C12.172 67.2788 11.1751 69.6814 11.1719 72.1875V85.9375C11.1719 86.1654 11.0813 86.384 10.9202 86.5452C10.759 86.7064 10.5404 86.7969 10.3125 86.7969Z" fill="#E0E0E0"/>
<path d="M60.1562 34.375C63.004 34.375 65.3125 32.0665 65.3125 29.2188C65.3125 26.371 63.004 24.0625 60.1562 24.0625C57.3085 24.0625 55 26.371 55 29.2188C55 32.0665 57.3085 34.375 60.1562 34.375Z" fill="#E0C8A4"/>
<path d="M60.1563 35.2344C58.9665 35.2344 57.8034 34.8816 56.8141 34.2206C55.8249 33.5596 55.0538 32.62 54.5985 31.5208C54.1432 30.4216 54.0241 29.2121 54.2562 28.0452C54.4883 26.8782 55.0613 25.8064 55.9026 24.9651C56.7439 24.1238 57.8157 23.5508 58.9827 23.3187C60.1496 23.0866 61.3591 23.2057 62.4583 23.661C63.5575 24.1163 64.4971 24.8874 65.1581 25.8767C65.8191 26.8659 66.1719 28.029 66.1719 29.2188C66.1719 30.8142 65.5381 32.3443 64.4099 33.4724C63.2818 34.6006 61.7517 35.2344 60.1563 35.2344ZM60.1563 24.9219C59.3064 24.9219 58.4757 25.1739 57.769 25.646C57.0624 26.1182 56.5117 26.7893 56.1865 27.5744C55.8612 28.3596 55.7761 29.2235 55.9419 30.057C56.1077 30.8905 56.517 31.6562 57.1179 32.2571C57.7188 32.858 58.4845 33.2673 59.318 33.4331C60.1515 33.5989 61.0154 33.5138 61.8006 33.1885C62.5857 32.8633 63.2568 32.3126 63.729 31.606C64.2011 30.8994 64.4531 30.0686 64.4531 29.2188C64.4531 28.0792 64.0004 26.9862 63.1946 26.1804C62.3888 25.3746 61.2959 24.9219 60.1563 24.9219Z" fill="#212A41"/>
<path d="M49.8438 10.3125H36.0938C33.3587 10.3125 30.7357 11.399 28.8017 13.333C26.8677 15.2669 25.7812 17.89 25.7812 20.625V24.0625C24.4137 24.0625 23.1022 24.6057 22.1352 25.5727C21.1682 26.5397 20.625 27.8512 20.625 29.2188C20.625 30.5863 21.1682 31.8978 22.1352 32.8648C23.1022 33.8318 24.4137 34.375 25.7812 34.375V37.8125C25.7812 40.5475 26.8677 43.1706 28.8017 45.1045C30.7357 47.0385 33.3587 48.125 36.0938 48.125H49.8438C52.5788 48.125 55.2018 47.0385 57.1358 45.1045C59.0698 43.1706 60.1562 40.5475 60.1562 37.8125V20.625C60.1562 17.89 59.0698 15.2669 57.1358 13.333C55.2018 11.399 52.5788 10.3125 49.8438 10.3125Z" fill="#E0C8A4"/>
<path d="M49.8437 48.9844H36.0937C33.1319 48.9807 30.2924 47.8025 28.1981 45.7082C26.1037 43.6138 24.9255 40.7743 24.9219 37.8125V35.1742C23.4879 34.9699 22.1759 34.2551 21.2267 33.161C20.2775 32.067 19.7549 30.6672 19.7549 29.2188C19.7549 27.7703 20.2775 26.3705 21.2267 25.2765C22.1759 24.1824 23.4879 23.4676 24.9219 23.2633V20.625C24.9255 17.6632 26.1037 14.8237 28.1981 12.7293C30.2924 10.635 33.1319 9.45676 36.0937 9.45312H49.8437C52.8056 9.45676 55.6451 10.635 57.7394 12.7293C59.8338 14.8237 61.012 17.6632 61.0156 20.625V37.8125C61.012 40.7743 59.8338 43.6138 57.7394 45.7082C55.6451 47.8025 52.8056 48.9807 49.8437 48.9844ZM36.0937 11.1719C33.5876 11.1751 31.185 12.172 29.4129 13.9441C27.6408 15.7163 26.6438 18.1189 26.6406 20.625V24.0625C26.6406 24.2904 26.5501 24.509 26.3889 24.6702C26.2278 24.8313 26.0092 24.9219 25.7812 24.9219C24.6416 24.9219 23.5487 25.3746 22.7429 26.1804C21.9371 26.9862 21.4844 28.0791 21.4844 29.2188C21.4844 30.3584 21.9371 31.4513 22.7429 32.2571C23.5487 33.0629 24.6416 33.5156 25.7812 33.5156C26.0092 33.5156 26.2278 33.6062 26.3889 33.7673C26.5501 33.9285 26.6406 34.1471 26.6406 34.375V37.8125C26.6438 40.3186 27.6408 42.7212 29.4129 44.4934C31.185 46.2655 33.5876 47.2624 36.0937 47.2656H49.8437C52.3499 47.2624 54.7525 46.2655 56.5246 44.4934C58.2967 42.7212 59.2937 40.3186 59.2969 37.8125V20.625C59.2937 18.1189 58.2967 15.7163 56.5246 13.9441C54.7525 12.172 52.3499 11.1751 49.8437 11.1719H36.0937Z" fill="#212A41"/>
<path d="M36.0938 45.5469C34.0432 45.5446 32.0772 44.729 30.6272 43.279C29.1772 41.829 28.3616 39.8631 28.3594 37.8125C28.3594 37.5846 28.4499 37.366 28.6111 37.2048C28.7722 37.0437 28.9908 36.9531 29.2188 36.9531C29.4467 36.9531 29.6653 37.0437 29.8264 37.2048C29.9876 37.366 30.0781 37.5846 30.0781 37.8125C30.0781 39.4079 30.7119 40.938 31.8401 42.0662C32.9682 43.1943 34.4983 43.8281 36.0938 43.8281C36.3217 43.8281 36.5403 43.9187 36.7014 44.0798C36.8626 44.241 36.9531 44.4596 36.9531 44.6875C36.9531 44.9154 36.8626 45.134 36.7014 45.2952C36.5403 45.4563 36.3217 45.5469 36.0938 45.5469Z" fill="#FEE6C2"/>
<path d="M49.8438 45.5469C49.6158 45.5469 49.3972 45.4563 49.2361 45.2952C49.0749 45.134 48.9844 44.9154 48.9844 44.6875C48.9844 44.4596 49.0749 44.241 49.2361 44.0798C49.3972 43.9187 49.6158 43.8281 49.8438 43.8281C51.4392 43.8281 52.9693 43.1943 54.0974 42.0662C55.2256 40.938 55.8594 39.4079 55.8594 37.8125V22.3438C55.8594 22.1158 55.9499 21.8972 56.1111 21.7361C56.2722 21.5749 56.4908 21.4844 56.7188 21.4844C56.9467 21.4844 57.1653 21.5749 57.3264 21.7361C57.4876 21.8972 57.5781 22.1158 57.5781 22.3438V37.8125C57.5759 39.8631 56.7603 41.829 55.3103 43.279C53.8603 44.729 51.8943 45.5446 49.8438 45.5469Z" fill="#C2AA86"/>
<path d="M36.0938 48.125H49.8438V58.4375H36.0938V48.125Z" fill="#E8D2A8"/>
<path d="M49.8438 59.2969H36.0938C35.8658 59.2969 35.6472 59.2063 35.4861 59.0452C35.3249 58.884 35.2344 58.6654 35.2344 58.4375V48.125C35.2344 47.8971 35.3249 47.6785 35.4861 47.5173C35.6472 47.3562 35.8658 47.2656 36.0938 47.2656H49.8438C50.0717 47.2656 50.2903 47.3562 50.4514 47.5173C50.6126 47.6785 50.7031 47.8971 50.7031 48.125V58.4375C50.7031 58.6654 50.6126 58.884 50.4514 59.0452C50.2903 59.2063 50.0717 59.2969 49.8438 59.2969ZM36.9531 57.5781H48.9844V48.9844H36.9531V57.5781Z" fill="#212A41"/>
<path d="M24.0625 86.7969C23.8346 86.7969 23.616 86.7063 23.4548 86.5452C23.2937 86.384 23.2031 86.1654 23.2031 85.9375V72.1875C23.2068 69.2257 24.385 66.3862 26.4793 64.2918C28.5737 62.1975 31.4132 61.0193 34.375 61.0156C34.6029 61.0156 34.8215 61.1062 34.9827 61.2673C35.1438 61.4285 35.2344 61.6471 35.2344 61.875C35.2344 62.1029 35.1438 62.3215 34.9827 62.4827C34.8215 62.6438 34.6029 62.7344 34.375 62.7344C31.8689 62.7376 29.4663 63.7345 27.6941 65.5066C25.922 67.2788 24.9251 69.6814 24.9219 72.1875V85.9375C24.9219 86.1654 24.8313 86.384 24.6702 86.5452C24.509 86.7063 24.2904 86.7969 24.0625 86.7969Z" fill="#FEFEFE"/>
<path d="M32.6562 6.875H61.875V12.0312C61.875 13.8546 61.1507 15.6033 59.8614 16.8926C58.572 18.1819 56.8234 18.9062 55 18.9062H25.7812V13.75C25.7812 11.9266 26.5056 10.178 27.7949 8.88864C29.0842 7.59933 30.8329 6.875 32.6562 6.875Z" fill="#6C696F"/>
<path d="M55 19.7656H25.7812C25.5533 19.7656 25.3347 19.6751 25.1736 19.5139C25.0124 19.3528 24.9219 19.1342 24.9219 18.9062V13.75C24.9241 11.6994 25.7397 9.73347 27.1897 8.28348C28.6397 6.8335 30.6057 6.0179 32.6562 6.01562H61.875C62.1029 6.01562 62.3215 6.10617 62.4827 6.26733C62.6438 6.42849 62.7344 6.64708 62.7344 6.875V12.0312C62.7321 14.0818 61.9165 16.0478 60.4665 17.4978C59.0165 18.9478 57.0506 19.7634 55 19.7656ZM26.6406 18.0469H55C56.5954 18.0469 58.1255 17.4131 59.2537 16.2849C60.3818 15.1568 61.0156 13.6267 61.0156 12.0312V7.73438H32.6562C31.0608 7.73438 29.5307 8.36816 28.4026 9.49631C27.2744 10.6245 26.6406 12.1546 26.6406 13.75V18.0469Z" fill="#212A41"/>
<path d="M55 16.3281C54.7721 16.3281 54.5535 16.2376 54.3923 16.0764C54.2312 15.9153 54.1406 15.6967 54.1406 15.4688C54.1406 15.2408 54.2312 15.0222 54.3923 14.8611C54.5535 14.6999 54.7721 14.6094 55 14.6094C55.6838 14.6094 56.3395 14.3378 56.823 13.8543C57.3065 13.3708 57.5781 12.715 57.5781 12.0312V10.3125C57.5781 10.0846 57.6687 9.86599 57.8298 9.70483C57.991 9.54367 58.2096 9.45312 58.4375 9.45312C58.6654 9.45312 58.884 9.54367 59.0452 9.70483C59.2063 9.86599 59.2969 10.0846 59.2969 10.3125V12.0312C59.2969 13.1709 58.8442 14.2638 58.0384 15.0696C57.2325 15.8754 56.1396 16.3281 55 16.3281Z" fill="#4E4B51"/>
<path d="M25.7812 10.3125H30.9375V17.1875C30.9375 19.0109 30.2132 20.7595 28.9239 22.0489C27.6345 23.3382 25.8859 24.0625 24.0625 24.0625H22.3438V13.75C22.3438 12.8383 22.7059 11.964 23.3506 11.3193C23.9952 10.6747 24.8696 10.3125 25.7812 10.3125Z" fill="#4E4B51"/>
<path d="M24.0625 24.9219H22.3438C22.1158 24.9219 21.8972 24.8313 21.7361 24.6702C21.5749 24.509 21.4844 24.2904 21.4844 24.0625V13.75C21.4844 12.6104 21.9371 11.5175 22.7429 10.7117C23.5487 9.90583 24.6416 9.45312 25.7812 9.45312H30.9375C31.1654 9.45312 31.384 9.54367 31.5452 9.70483C31.7063 9.86599 31.7969 10.0846 31.7969 10.3125V17.1875C31.7946 19.2381 30.979 21.204 29.529 22.654C28.079 24.104 26.1131 24.9196 24.0625 24.9219ZM23.2031 23.2031H24.0625C25.6579 23.2031 27.188 22.5693 28.3162 21.4412C29.4443 20.313 30.0781 18.7829 30.0781 17.1875V11.1719H25.7812C25.0975 11.1719 24.4417 11.4435 23.9582 11.927C23.4747 12.4105 23.2031 13.0662 23.2031 13.75V23.2031Z" fill="#212A41"/>
<path d="M25.7812 21.022C25.5533 21.022 25.3347 20.9315 25.1736 20.7703C25.0124 20.6092 24.9219 20.3906 24.9219 20.1627V13.75C24.9219 13.5221 25.0124 13.3035 25.1736 13.1423C25.3347 12.9812 25.5533 12.8906 25.7812 12.8906C26.0092 12.8906 26.2278 12.9812 26.3889 13.1423C26.5501 13.3035 26.6406 13.5221 26.6406 13.75V20.1627C26.6406 20.3906 26.5501 20.6092 26.3889 20.7703C26.2278 20.9315 26.0092 21.022 25.7812 21.022Z" fill="#6C696F"/>
<path d="M25.7813 35.2344C24.5914 35.2345 23.4283 34.8817 22.4389 34.2207C21.4496 33.5597 20.6785 32.6202 20.2231 31.5209C19.7678 30.4217 19.6487 29.2121 19.8808 28.0451C20.113 26.8781 20.686 25.8062 21.5274 24.9649C22.6735 23.8711 24.197 23.2609 25.7813 23.2609C27.3656 23.2609 28.889 23.8711 30.0352 24.9649C30.1917 25.127 30.2783 25.344 30.2764 25.5694C30.2744 25.7947 30.184 26.0102 30.0247 26.1696C29.8654 26.3289 29.6498 26.4193 29.4245 26.4212C29.1992 26.4232 28.9821 26.3366 28.82 26.18C28.0014 25.3984 26.9131 24.9622 25.7813 24.9622C24.6494 24.9622 23.5611 25.3984 22.7425 26.18C22.3434 26.5791 22.0268 27.0528 21.8108 27.5742C21.5948 28.0956 21.4836 28.6544 21.4836 29.2188C21.4836 29.7832 21.5948 30.342 21.8108 30.8634C22.0268 31.3848 22.3434 31.8585 22.7425 32.2575C23.5611 33.0392 24.6494 33.4754 25.7813 33.4754C26.9131 33.4754 28.0014 33.0392 28.82 32.2575C28.9821 32.101 29.1992 32.0144 29.4245 32.0163C29.6498 32.0183 29.8654 32.1087 30.0247 32.268C30.184 32.4273 30.2744 32.6429 30.2764 32.8682C30.2783 33.0935 30.1917 33.3106 30.0352 33.4727C29.4779 34.0332 28.815 34.4775 28.0848 34.7799C27.3546 35.0824 26.5716 35.2368 25.7813 35.2344Z" fill="#212A41"/>
<path d="M60.1562 58.4375H53.2812L56.7188 53.2812L60.1562 58.4375Z" fill="#E0E0E0"/>
<path d="M60.1562 59.2969H53.2812C53.1258 59.2968 52.9733 59.2546 52.8399 59.1747C52.7066 59.0948 52.5974 58.9802 52.5241 58.8432C52.4507 58.7061 52.4159 58.5517 52.4233 58.3965C52.4307 58.2412 52.4801 58.0908 52.5662 57.9614L56.0037 52.8052C56.0868 52.6939 56.1946 52.6035 56.3188 52.5412C56.4429 52.479 56.5799 52.4465 56.7187 52.4465C56.8576 52.4465 56.9946 52.479 57.1187 52.5412C57.2428 52.6035 57.3507 52.6939 57.4337 52.8052L60.8712 57.9614C60.9574 58.0908 61.0068 58.2412 61.0142 58.3965C61.0216 58.5517 60.9868 58.7061 60.9134 58.8432C60.84 58.9802 60.7309 59.0948 60.5975 59.1747C60.4642 59.2546 60.3117 59.2968 60.1562 59.2969ZM54.8883 57.5782H58.5492L56.7187 54.8282L54.8883 57.5782Z" fill="#212A41"/>
<path d="M53.2812 58.4375H49.8438V53.2812H56.7188L53.2812 58.4375Z" fill="#C2C2C2"/>
<path d="M53.2813 59.2969H49.8438C49.6158 59.2969 49.3972 59.2063 49.2361 59.0452C49.0749 58.884 48.9844 58.6654 48.9844 58.4375V53.2812C48.9844 53.0533 49.0749 52.8347 49.2361 52.6736C49.3972 52.5124 49.6158 52.4219 49.8438 52.4219H56.7188C56.8742 52.422 57.0267 52.4642 57.1601 52.5441C57.2934 52.624 57.4026 52.7386 57.4759 52.8756C57.5493 53.0127 57.5841 53.167 57.5767 53.3223C57.5693 53.4776 57.5199 53.6279 57.4338 53.7573L53.9963 58.9136C53.9178 59.0314 53.8116 59.1281 53.6868 59.1949C53.5621 59.2618 53.4228 59.2968 53.2813 59.2969ZM50.7031 57.5781H52.8206L55.1117 54.1406H50.7031V57.5781Z" fill="#212A41"/>
<path d="M46.4062 58.4375H39.5312L42.9688 53.2812L46.4062 58.4375Z" fill="#E0E0E0"/>
<path d="M46.4062 59.2969H39.5312C39.3758 59.2968 39.2233 59.2546 39.0899 59.1747C38.9566 59.0948 38.8474 58.9802 38.7741 58.8432C38.7007 58.7061 38.6659 58.5517 38.6733 58.3965C38.6807 58.2412 38.7301 58.0908 38.8162 57.9614L42.2537 52.8052C42.3368 52.6939 42.4446 52.6035 42.5688 52.5412C42.6929 52.479 42.8299 52.4465 42.9687 52.4465C43.1076 52.4465 43.2446 52.479 43.3687 52.5412C43.4928 52.6035 43.6007 52.6939 43.6837 52.8052L47.1212 57.9614C47.2074 58.0908 47.2568 58.2412 47.2642 58.3965C47.2716 58.5517 47.2368 58.7061 47.1634 58.8432C47.09 58.9802 46.9809 59.0948 46.8475 59.1747C46.7142 59.2546 46.5617 59.2968 46.4062 59.2969ZM41.1383 57.5782H44.7992L42.9687 54.8282L41.1383 57.5782Z" fill="#212A41"/>
<path d="M39.5312 58.4375H27.5L30.9375 53.2812H42.9688L39.5312 58.4375Z" fill="#C2C2C2"/>
<path d="M39.5312 59.2969H27.5C27.3445 59.2968 27.192 59.2546 27.0587 59.1746C26.9253 59.0947 26.8162 58.9802 26.7428 58.8431C26.6694 58.7061 26.6346 58.5517 26.642 58.3964C26.6495 58.2412 26.6989 58.0908 26.785 57.9614L30.2225 52.8052C30.3009 52.6873 30.4072 52.5907 30.5319 52.5238C30.6566 52.457 30.796 52.4219 30.9375 52.4219H42.9687C43.1242 52.422 43.2767 52.4642 43.41 52.5441C43.5434 52.624 43.6525 52.7386 43.7259 52.8756C43.7993 53.0127 43.8341 53.167 43.8267 53.3223C43.8193 53.4776 43.7699 53.6279 43.6837 53.7573L40.2462 58.9136C40.1678 59.0314 40.0615 59.1281 39.9368 59.1949C39.8121 59.2618 39.6728 59.2968 39.5312 59.2969ZM29.107 57.5781H39.0758L41.3669 54.1406H31.3981L29.107 57.5781Z" fill="#212A41"/>
<path d="M55 89.375H44.6875L46.4062 68.75H53.2812L55 89.375Z" fill="#D32E5E"/>
<path d="M55 90.2344H44.6875C44.5683 90.2348 44.4503 90.2104 44.341 90.1628C44.2318 90.1152 44.1336 90.0453 44.0528 89.9577C43.972 89.8701 43.9103 89.7666 43.8716 89.6539C43.8329 89.5411 43.8181 89.4216 43.8281 89.3028L45.5469 68.6778C45.565 68.4626 45.6635 68.2622 45.8227 68.1163C45.982 67.9704 46.1903 67.8899 46.4062 67.8906H53.2812C53.4972 67.8899 53.7055 67.9704 53.8647 68.1163C54.024 68.2622 54.1225 68.4626 54.1406 68.6778L55.8594 89.3028C55.8694 89.4216 55.8546 89.5411 55.8159 89.6539C55.7772 89.7666 55.7155 89.8701 55.6347 89.9577C55.5539 90.0453 55.4557 90.1152 55.3464 90.1628C55.2372 90.2104 55.1192 90.2348 55 90.2344ZM45.6208 88.5156H54.0667L52.4906 69.6094H47.1969L45.6208 88.5156Z" fill="#212A41"/>
<path d="M53.2812 58.4375H46.4062L42.9688 63.5938L46.4062 68.75H53.2812L56.7188 63.5938L53.2812 58.4375Z" fill="#D32E5E"/>
<path d="M53.2812 69.6094H46.4062C46.2647 69.6093 46.1254 69.5743 46.0007 69.5074C45.8759 69.4406 45.7696 69.3439 45.6912 69.2261L42.2537 64.0698C42.1599 63.9288 42.1098 63.7632 42.1098 63.5938C42.1098 63.4243 42.1599 63.2587 42.2537 63.1177L45.6912 57.9614C45.7696 57.8436 45.8759 57.7469 46.0007 57.6801C46.1254 57.6132 46.2647 57.5782 46.4062 57.5781H53.2812C53.4228 57.5782 53.5621 57.6132 53.6868 57.6801C53.8115 57.7469 53.9178 57.8436 53.9962 57.9614L57.4337 63.1177C57.5276 63.2587 57.5777 63.4243 57.5777 63.5938C57.5777 63.7632 57.5276 63.9288 57.4337 64.0698L53.9962 69.2261C53.9178 69.3439 53.8115 69.4406 53.6868 69.5074C53.5621 69.5743 53.4228 69.6093 53.2812 69.6094ZM46.8669 67.8906H52.8206L55.6875 63.5938L52.8223 59.2969H46.8669L44 63.5938L46.8669 67.8906Z" fill="#212A41"/>
<path d="M6.875 89.375H41.25V103.125H10.3125C9.40082 103.125 8.52648 102.763 7.88182 102.118C7.23716 101.474 6.875 100.599 6.875 99.6875V89.375Z" fill="#C2AA86"/>
<path d="M41.25 103.984H10.3125C9.1729 103.984 8.07997 103.532 7.27415 102.726C6.46833 101.92 6.01562 100.827 6.01562 99.6875V89.375C6.01562 89.1471 6.10617 88.9285 6.26733 88.7673C6.42849 88.6062 6.64708 88.5156 6.875 88.5156H41.25C41.4779 88.5156 41.6965 88.6062 41.8577 88.7673C42.0188 88.9285 42.1094 89.1471 42.1094 89.375V103.125C42.1094 103.353 42.0188 103.572 41.8577 103.733C41.6965 103.894 41.4779 103.984 41.25 103.984ZM7.73438 90.2344V99.6875C7.73438 100.371 8.006 101.027 8.48949 101.511C8.97298 101.994 9.62874 102.266 10.3125 102.266H40.3906V90.2344H7.73438Z" fill="#212A41"/>
<path d="M24.0625 100.547C23.8346 100.547 23.616 100.456 23.4548 100.295C23.2937 100.134 23.2031 99.9154 23.2031 99.6875V92.8125C23.2031 92.5846 23.2937 92.366 23.4548 92.2048C23.616 92.0437 23.8346 91.9531 24.0625 91.9531C24.2904 91.9531 24.509 92.0437 24.6702 92.2048C24.8313 92.366 24.9219 92.5846 24.9219 92.8125V99.6875C24.9219 99.9154 24.8313 100.134 24.6702 100.295C24.509 100.456 24.2904 100.547 24.0625 100.547Z" fill="#FEE6C2"/>
<path d="M10.3125 100.547C10.0846 100.547 9.86599 100.456 9.70483 100.295C9.54367 100.134 9.45312 99.9154 9.45312 99.6875V92.8125C9.45312 92.5846 9.54367 92.366 9.70483 92.2048C9.86599 92.0437 10.0846 91.9531 10.3125 91.9531C10.5404 91.9531 10.759 92.0437 10.9202 92.2048C11.0813 92.366 11.1719 92.5846 11.1719 92.8125V99.6875C11.1719 99.9154 11.0813 100.134 10.9202 100.295C10.759 100.456 10.5404 100.547 10.3125 100.547Z" fill="#E0C8A4"/>
<path d="M34.375 90.2344C34.1471 90.2344 33.9285 90.1438 33.7673 89.9827C33.6062 89.8215 33.5156 89.6029 33.5156 89.375V79.0625C33.5156 78.8346 33.6062 78.616 33.7673 78.4548C33.9285 78.2937 34.1471 78.2031 34.375 78.2031C34.6029 78.2031 34.8215 78.2937 34.9827 78.4548C35.1438 78.616 35.2344 78.8346 35.2344 79.0625V89.375C35.2344 89.6029 35.1438 89.8215 34.9827 89.9827C34.8215 90.1438 34.6029 90.2344 34.375 90.2344Z" fill="#212A41"/>
<path d="M96.25 58.4375H65.3125C64.3633 58.4375 63.5938 59.207 63.5938 60.1562V101.406C63.5938 102.355 64.3633 103.125 65.3125 103.125H96.25C97.1992 103.125 97.9688 102.355 97.9688 101.406V60.1562C97.9688 59.207 97.1992 58.4375 96.25 58.4375Z" fill="#4E4B51"/>
<path d="M96.25 103.984H65.3125C64.6287 103.984 63.973 103.713 63.4895 103.229C63.006 102.746 62.7344 102.09 62.7344 101.406V60.1562C62.7344 59.4725 63.006 58.8167 63.4895 58.3332C63.973 57.8497 64.6287 57.5781 65.3125 57.5781H96.25C96.9338 57.5781 97.5895 57.8497 98.073 58.3332C98.5565 58.8167 98.8281 59.4725 98.8281 60.1562V101.406C98.8281 102.09 98.5565 102.746 98.073 103.229C97.5895 103.713 96.9338 103.984 96.25 103.984ZM65.3125 59.2969C65.0846 59.2969 64.866 59.3874 64.7048 59.5486C64.5437 59.7097 64.4531 59.9283 64.4531 60.1562V101.406C64.4531 101.634 64.5437 101.853 64.7048 102.014C64.866 102.175 65.0846 102.266 65.3125 102.266H96.25C96.4779 102.266 96.6965 102.175 96.8577 102.014C97.0188 101.853 97.1094 101.634 97.1094 101.406V60.1562C97.1094 59.9283 97.0188 59.7097 96.8577 59.5486C96.6965 59.3874 96.4779 59.2969 96.25 59.2969H65.3125Z" fill="#212A41"/>
<path d="M101.406 58.4375H70.4688C69.5195 58.4375 68.75 59.207 68.75 60.1562V101.406C68.75 102.355 69.5195 103.125 70.4688 103.125H101.406C102.355 103.125 103.125 102.355 103.125 101.406V60.1562C103.125 59.207 102.355 58.4375 101.406 58.4375Z" fill="#6C696F"/>
<path d="M101.406 103.984H70.4688C69.785 103.984 69.1292 103.713 68.6457 103.229C68.1622 102.746 67.8906 102.09 67.8906 101.406V60.1562C67.8906 59.4725 68.1622 58.8167 68.6457 58.3332C69.1292 57.8497 69.785 57.5781 70.4688 57.5781H101.406C102.09 57.5781 102.746 57.8497 103.229 58.3332C103.713 58.8167 103.984 59.4725 103.984 60.1562V101.406C103.984 102.09 103.713 102.746 103.229 103.229C102.746 103.713 102.09 103.984 101.406 103.984ZM70.4688 59.2969C70.2408 59.2969 70.0222 59.3874 69.8611 59.5486C69.6999 59.7097 69.6094 59.9283 69.6094 60.1562V101.406C69.6094 101.634 69.6999 101.853 69.8611 102.014C70.0222 102.175 70.2408 102.266 70.4688 102.266H101.406C101.634 102.266 101.853 102.175 102.014 102.014C102.175 101.853 102.266 101.634 102.266 101.406V60.1562C102.266 59.9283 102.175 59.7097 102.014 59.5486C101.853 59.3874 101.634 59.2969 101.406 59.2969H70.4688Z" fill="#212A41"/>
<path d="M96.25 63.5938H75.625C74.6758 63.5938 73.9062 64.3633 73.9062 65.3125V96.25C73.9062 97.1992 74.6758 97.9688 75.625 97.9688H96.25C97.1992 97.9688 97.9688 97.1992 97.9688 96.25V65.3125C97.9688 64.3633 97.1992 63.5938 96.25 63.5938Z" fill="#B7C0D7"/>
<path d="M96.25 98.8281H75.625C74.9412 98.8281 74.2855 98.5565 73.802 98.073C73.3185 97.5895 73.0469 96.9338 73.0469 96.25V65.3125C73.0469 64.6287 73.3185 63.973 73.802 63.4895C74.2855 63.006 74.9412 62.7344 75.625 62.7344H96.25C96.9338 62.7344 97.5895 63.006 98.073 63.4895C98.5565 63.973 98.8281 64.6287 98.8281 65.3125V96.25C98.8281 96.9338 98.5565 97.5895 98.073 98.073C97.5895 98.5565 96.9338 98.8281 96.25 98.8281ZM75.625 64.4531C75.3971 64.4531 75.1785 64.5437 75.0173 64.7048C74.8562 64.866 74.7656 65.0846 74.7656 65.3125V96.25C74.7656 96.4779 74.8562 96.6965 75.0173 96.8577C75.1785 97.0188 75.3971 97.1094 75.625 97.1094H96.25C96.4779 97.1094 96.6965 97.0188 96.8577 96.8577C97.0188 96.6965 97.1094 96.4779 97.1094 96.25V65.3125C97.1094 65.0846 97.0188 64.866 96.8577 64.7048C96.6965 64.5437 96.4779 64.4531 96.25 64.4531H75.625Z" fill="#212A41"/>
<path d="M68.75 89.375H60.1562V86.7969C60.1562 86.1131 59.8846 85.4574 59.4011 84.9739C58.9176 84.4904 58.2619 84.2188 57.5781 84.2188C56.8944 84.2188 56.2386 84.4904 55.7551 84.9739C55.2716 85.4574 55 86.1131 55 86.7969V89.375H20.625V99.6875C20.625 100.599 20.9872 101.474 21.6318 102.118C22.2765 102.763 23.1508 103.125 24.0625 103.125H68.75C69.6617 103.125 70.536 102.763 71.1807 102.118C71.8253 101.474 72.1875 100.599 72.1875 99.6875V92.8125C72.1875 91.9008 71.8253 91.0265 71.1807 90.3818C70.536 89.7372 69.6617 89.375 68.75 89.375Z" fill="#E0C8A4"/>
<path d="M68.75 103.984H24.0625C22.9229 103.984 21.83 103.532 21.0242 102.726C20.2183 101.92 19.7656 100.827 19.7656 99.6875V89.375C19.7656 89.1471 19.8562 88.9285 20.0173 88.7673C20.1785 88.6062 20.3971 88.5156 20.625 88.5156H54.1406V86.7969C54.1406 85.8852 54.5028 85.0108 55.1474 84.3662C55.7921 83.7215 56.6664 83.3594 57.5781 83.3594C58.4898 83.3594 59.3642 83.7215 60.0088 84.3662C60.6535 85.0108 61.0156 85.8852 61.0156 86.7969V88.5156H68.75C69.8896 88.5156 70.9825 88.9683 71.7884 89.7741C72.5942 90.58 73.0469 91.6729 73.0469 92.8125V99.6875C73.0469 100.827 72.5942 101.92 71.7884 102.726C70.9825 103.532 69.8896 103.984 68.75 103.984ZM21.4844 90.2344V99.6875C21.4844 100.371 21.756 101.027 22.2395 101.511C22.723 101.994 23.3787 102.266 24.0625 102.266H68.75C69.4338 102.266 70.0895 101.994 70.573 101.511C71.0565 101.027 71.3281 100.371 71.3281 99.6875V92.8125C71.3281 92.1287 71.0565 91.473 70.573 90.9895C70.0895 90.506 69.4338 90.2344 68.75 90.2344H60.1562C59.9283 90.2344 59.7097 90.1438 59.5486 89.9827C59.3874 89.8215 59.2969 89.6029 59.2969 89.375V86.7969C59.2969 86.341 59.1158 85.9039 58.7935 85.5815C58.4711 85.2592 58.034 85.0781 57.5781 85.0781C57.1223 85.0781 56.6851 85.2592 56.3628 85.5815C56.0405 85.9039 55.8594 86.341 55.8594 86.7969V89.375C55.8594 89.6029 55.7688 89.8215 55.6077 89.9827C55.4465 90.1438 55.2279 90.2344 55 90.2344H21.4844Z" fill="#212A41"/>
<path d="M80.7812 53.2812C88.3752 53.2812 94.5312 47.1252 94.5312 39.5312C94.5312 31.9373 88.3752 25.7812 80.7812 25.7812C73.1873 25.7812 67.0312 31.9373 67.0312 39.5312C67.0312 47.1252 73.1873 53.2812 80.7812 53.2812Z" fill="#F9AC2F"/>
<path d="M80.7813 54.1406C77.8918 54.1406 75.0672 53.2838 72.6647 51.6785C70.2622 50.0732 68.3897 47.7915 67.284 45.122C66.1782 42.4525 65.8889 39.5151 66.4526 36.6811C67.0163 33.8472 68.4077 31.244 70.4509 29.2009C72.494 27.1577 75.0972 25.7663 77.9311 25.2026C80.765 24.6389 83.7025 24.9282 86.372 26.034C89.0415 27.1397 91.3232 29.0122 92.9285 31.4147C94.5338 33.8172 95.3906 36.6418 95.3906 39.5313C95.3861 43.4045 93.8454 47.1178 91.1066 49.8566C88.3678 52.5954 84.6545 54.1361 80.7813 54.1406ZM80.7813 26.6406C78.2317 26.6406 75.7395 27.3967 73.6196 28.8131C71.4998 30.2295 69.8475 32.2428 68.8719 34.5982C67.8962 36.9537 67.6409 39.5456 68.1383 42.0461C68.6357 44.5466 69.8634 46.8435 71.6662 48.6463C73.469 50.4491 75.7659 51.6768 78.2664 52.1742C80.767 52.6716 83.3588 52.4163 85.7143 51.4406C88.0697 50.465 90.083 48.8128 91.4994 46.6929C92.9159 44.5731 93.6719 42.0808 93.6719 39.5313C93.6682 36.1136 92.309 32.8369 89.8923 30.4202C87.4756 28.0036 84.1989 26.6443 80.7813 26.6406Z" fill="#212A41"/>
<path d="M85.9375 53.2812C93.5314 53.2812 99.6875 47.1252 99.6875 39.5312C99.6875 31.9373 93.5314 25.7812 85.9375 25.7812C78.3436 25.7812 72.1875 31.9373 72.1875 39.5312C72.1875 47.1252 78.3436 53.2812 85.9375 53.2812Z" fill="#F9AC2F"/>
<path d="M85.9375 54.1406C83.048 54.1406 80.2235 53.2838 77.821 51.6785C75.4185 50.0732 73.5459 47.7915 72.4402 45.122C71.3345 42.4525 71.0451 39.5151 71.6088 36.6811C72.1726 33.8472 73.564 31.244 75.6071 29.2009C77.6503 27.1577 80.2534 25.7663 83.0874 25.2026C85.9213 24.6389 88.8588 24.9282 91.5283 26.034C94.1978 27.1397 96.4795 29.0122 98.0848 31.4147C99.6901 33.8172 100.547 36.6418 100.547 39.5313C100.542 43.4045 99.0017 47.1178 96.2629 49.8566C93.5241 52.5954 89.8108 54.1361 85.9375 54.1406ZM85.9375 26.6406C83.388 26.6406 80.8957 27.3967 78.7759 28.8131C76.656 30.2295 75.0038 32.2428 74.0281 34.5982C73.0525 36.9537 72.7972 39.5456 73.2946 42.0461C73.792 44.5466 75.0197 46.8435 76.8225 48.6463C78.6252 50.4491 80.9221 51.6768 83.4227 52.1742C85.9232 52.6716 88.5151 52.4163 90.8705 51.4406C93.226 50.465 95.2392 48.8128 96.6557 46.6929C98.0721 44.5731 98.8281 42.0808 98.8281 39.5313C98.8245 36.1136 97.4652 32.8369 95.0485 30.4202C92.6319 28.0036 89.3552 26.6443 85.9375 26.6406Z" fill="#212A41"/>
<path d="M85.9375 50.7031C85.7096 50.7031 85.491 50.6126 85.3298 50.4514C85.1687 50.2903 85.0781 50.0717 85.0781 49.8438C85.0781 49.6158 85.1687 49.3972 85.3298 49.2361C85.491 49.0749 85.7096 48.9844 85.9375 48.9844C88.4436 48.9812 90.8462 47.9842 92.6184 46.2121C94.3905 44.44 95.3874 42.0374 95.3906 39.5312C95.3906 39.3033 95.4812 39.0847 95.6423 38.9236C95.8035 38.7624 96.0221 38.6719 96.25 38.6719C96.4779 38.6719 96.6965 38.7624 96.8577 38.9236C97.0188 39.0847 97.1094 39.3033 97.1094 39.5312C97.1057 42.4931 95.9275 45.3326 93.8332 47.4269C91.7388 49.5213 88.8993 50.6995 85.9375 50.7031Z" fill="#DB8E11"/>
<path d="M75.625 40.3906C75.3971 40.3906 75.1785 40.3001 75.0173 40.1389C74.8562 39.9778 74.7656 39.7592 74.7656 39.5312C74.7693 36.5694 75.9475 33.7299 78.0418 31.6356C80.1362 29.5412 82.9757 28.363 85.9375 28.3594C86.1654 28.3594 86.384 28.4499 86.5452 28.6111C86.7063 28.7722 86.7969 28.9908 86.7969 29.2188C86.7969 29.4467 86.7063 29.6653 86.5452 29.8264C86.384 29.9876 86.1654 30.0781 85.9375 30.0781C83.4314 30.0813 81.0288 31.0783 79.2566 32.8504C77.4845 34.6225 76.4876 37.0251 76.4844 39.5312C76.4844 39.7592 76.3938 39.9778 76.2327 40.1389C76.0715 40.3001 75.8529 40.3906 75.625 40.3906Z" fill="#FFCA4D"/>
<path d="M86.7969 45.5469H82.5C82.2721 45.5469 82.0535 45.4563 81.8923 45.2952C81.7312 45.134 81.6406 44.9154 81.6406 44.6875C81.6406 44.4596 81.7312 44.241 81.8923 44.0798C82.0535 43.9187 82.2721 43.8281 82.5 43.8281H86.7969C87.2527 43.8281 87.6899 43.647 88.0122 43.3247C88.3345 43.0024 88.5156 42.5652 88.5156 42.1094C88.5156 41.6535 88.3345 41.2164 88.0122 40.894C87.6899 40.5717 87.2527 40.3906 86.7969 40.3906H85.0781C84.1664 40.3906 83.2921 40.0285 82.6474 39.3838C82.0028 38.7391 81.6406 37.8648 81.6406 36.9531C81.6406 36.0414 82.0028 35.1671 82.6474 34.5224C83.2921 33.8778 84.1664 33.5156 85.0781 33.5156H89.375C89.6029 33.5156 89.8215 33.6062 89.9827 33.7673C90.1438 33.9285 90.2344 34.1471 90.2344 34.375C90.2344 34.6029 90.1438 34.8215 89.9827 34.9827C89.8215 35.1438 89.6029 35.2344 89.375 35.2344H85.0781C84.6223 35.2344 84.1851 35.4155 83.8628 35.7378C83.5405 36.0601 83.3594 36.4973 83.3594 36.9531C83.3594 37.409 83.5405 37.8461 83.8628 38.1685C84.1851 38.4908 84.6223 38.6719 85.0781 38.6719H86.7969C87.7086 38.6719 88.5829 39.034 89.2276 39.6787C89.8722 40.3234 90.2344 41.1977 90.2344 42.1094C90.2344 43.0211 89.8722 43.8954 89.2276 44.5401C88.5829 45.1847 87.7086 45.5469 86.7969 45.5469Z" fill="#212A41"/>
<path d="M85.9375 35.2344C85.7096 35.2344 85.491 35.1438 85.3298 34.9827C85.1687 34.8215 85.0781 34.6029 85.0781 34.375V30.9375C85.0781 30.7096 85.1687 30.491 85.3298 30.3298C85.491 30.1687 85.7096 30.0781 85.9375 30.0781C86.1654 30.0781 86.384 30.1687 86.5452 30.3298C86.7063 30.491 86.7969 30.7096 86.7969 30.9375V34.375C86.7969 34.6029 86.7063 34.8215 86.5452 34.9827C86.384 35.1438 86.1654 35.2344 85.9375 35.2344Z" fill="#212A41"/>
<path d="M85.9375 48.9844C85.7096 48.9844 85.491 48.8938 85.3298 48.7327C85.1687 48.5715 85.0781 48.3529 85.0781 48.125V44.6875C85.0781 44.4596 85.1687 44.241 85.3298 44.0798C85.491 43.9187 85.7096 43.8281 85.9375 43.8281C86.1654 43.8281 86.384 43.9187 86.5452 44.0798C86.7063 44.241 86.7969 44.4596 86.7969 44.6875V48.125C86.7969 48.3529 86.7063 48.5715 86.5452 48.7327C86.384 48.8938 86.1654 48.9844 85.9375 48.9844Z" fill="#212A41"/>
<path d="M92.8125 73.0469H79.0625C78.8346 73.0469 78.616 72.9563 78.4548 72.7952C78.2937 72.634 78.2031 72.4154 78.2031 72.1875C78.2031 71.9596 78.2937 71.741 78.4548 71.5798C78.616 71.4187 78.8346 71.3281 79.0625 71.3281H92.8125C93.0404 71.3281 93.259 71.4187 93.4202 71.5798C93.5813 71.741 93.6719 71.9596 93.6719 72.1875C93.6719 72.4154 93.5813 72.634 93.4202 72.7952C93.259 72.9563 93.0404 73.0469 92.8125 73.0469Z" fill="#212A41"/>
<path d="M92.8125 78.2031H79.0625C78.8346 78.2031 78.616 78.1126 78.4548 77.9514C78.2937 77.7903 78.2031 77.5717 78.2031 77.3438C78.2031 77.1158 78.2937 76.8972 78.4548 76.7361C78.616 76.5749 78.8346 76.4844 79.0625 76.4844H92.8125C93.0404 76.4844 93.259 76.5749 93.4202 76.7361C93.5813 76.8972 93.6719 77.1158 93.6719 77.3438C93.6719 77.5717 93.5813 77.7903 93.4202 77.9514C93.259 78.1126 93.0404 78.2031 92.8125 78.2031Z" fill="#212A41"/>
<path d="M92.8125 83.3594H79.0625C78.8346 83.3594 78.616 83.2688 78.4548 83.1077C78.2937 82.9465 78.2031 82.7279 78.2031 82.5C78.2031 82.2721 78.2937 82.0535 78.4548 81.8923C78.616 81.7312 78.8346 81.6406 79.0625 81.6406H92.8125C93.0404 81.6406 93.259 81.7312 93.4202 81.8923C93.5813 82.0535 93.6719 82.2721 93.6719 82.5C93.6719 82.7279 93.5813 82.9465 93.4202 83.1077C93.259 83.2688 93.0404 83.3594 92.8125 83.3594Z" fill="#212A41"/>
<path d="M92.8125 88.5156H79.0625C78.8346 88.5156 78.616 88.4251 78.4548 88.2639C78.2937 88.1028 78.2031 87.8842 78.2031 87.6562C78.2031 87.4283 78.2937 87.2097 78.4548 87.0486C78.616 86.8874 78.8346 86.7969 79.0625 86.7969H92.8125C93.0404 86.7969 93.259 86.8874 93.4202 87.0486C93.5813 87.2097 93.6719 87.4283 93.6719 87.6562C93.6719 87.8842 93.5813 88.1028 93.4202 88.2639C93.259 88.4251 93.0404 88.5156 92.8125 88.5156Z" fill="#212A41"/>
</svg>
