<svg width="100" height="100" viewBox="0 0 100 100" fill="none" xmlns="http://www.w3.org/2000/svg">
<path d="M76.1719 61.5234V79.4922L100 92.1875V48.8281L76.1719 61.5234Z" fill="#000"/>
<path
        d="M52.7344 41.0156C62.4425 41.0156 70.3125 33.1456 70.3125 23.4375C70.3125 13.7294 62.4425 5.85938 52.7344 5.85938C43.0262 5.85938 35.1562 13.7294 35.1562 23.4375C35.1562 33.1456 43.0262 41.0156 52.7344 41.0156Z" fill="#000"/>
<path
        d="M17.5781 41.0156C27.2863 41.0156 35.1562 33.1456 35.1562 23.4375C35.1562 13.7294 27.2863 5.85938 17.5781 5.85938C7.86999 5.85938 0 13.7294 0 23.4375C0 33.1456 7.86999 41.0156 17.5781 41.0156Z" fill="#000"/>
<path d="M14.6484 61.5234H55.6641V79.4922H14.6484V61.5234Z" fill="#000"/>
<path d="M0 46.875V94.1406H70.3125V46.875H0ZM61.5234 55.6641V85.3516H8.78906V55.6641H61.5234Z"
      fill="#000"/>
</svg>
